<svg width="48" height="46" viewBox="0 0 48 46" fill="none" xmlns="http://www.w3.org/2000/svg">
<path d="M20.486 31.2685L12 23.1342L14.828 20.424L20.486 25.8443L31.798 15.0018L34.628 17.7138L20.486 31.2647V31.2685Z" fill="#0B9246"/>
<path fill-rule="evenodd" clip-rule="evenodd" d="M2 23C2 11.3563 11.85 1.91667 24 1.91667C36.15 1.91667 46 11.3563 46 23C46 34.6438 36.15 44.0833 24 44.0833C11.85 44.0833 2 34.6438 2 23ZM24 40.25C21.6362 40.25 19.2956 39.8038 17.1117 38.9369C14.9278 38.07 12.9435 36.7994 11.2721 35.1976C9.60062 33.5958 8.27475 31.6942 7.37017 29.6013C6.46558 27.5084 6 25.2653 6 23C6 20.7347 6.46558 18.4916 7.37017 16.3987C8.27475 14.3058 9.60062 12.4042 11.2721 10.8024C12.9435 9.2006 14.9278 7.92997 17.1117 7.06308C19.2956 6.19619 21.6362 5.75 24 5.75C28.7739 5.75 33.3523 7.56741 36.7279 10.8024C40.1036 14.0374 42 18.425 42 23C42 27.575 40.1036 31.9626 36.7279 35.1976C33.3523 38.4326 28.7739 40.25 24 40.25Z" fill="#0B9246"/>
</svg>
