<svg width="32" height="32" viewBox="0 0 32 32" fill="none" xmlns="http://www.w3.org/2000/svg">
<path id="Vector" fill-rule="evenodd" clip-rule="evenodd" d="M0 6.4C0 2.86538 2.86538 0 6.4 0H25.6C29.1346 0 32 2.86538 32 6.4V25.6C32 29.1346 29.1346 32 25.6 32H6.4C2.86538 32 0 29.1346 0 25.6V6.4ZM6.4 3.2C4.63269 3.2 3.2 4.63269 3.2 6.4V25.6C3.2 27.3674 4.63269 28.8 6.4 28.8H16V17.6H14.4C13.5163 17.6 12.8 16.8837 12.8 16C12.8 15.1163 13.5163 14.4 14.4 14.4H16V12C16 8.9072 18.5072 6.4 21.6 6.4H22.56C23.4437 6.4 24.16 7.11635 24.16 8C24.16 8.88365 23.4437 9.6 22.56 9.6H21.6C20.2746 9.6 19.2 10.6745 19.2 12V14.4H22.56C23.4437 14.4 24.16 15.1163 24.16 16C24.16 16.8837 23.4437 17.6 22.56 17.6H19.2V28.8H25.6C27.3674 28.8 28.8 27.3674 28.8 25.6V6.4C28.8 4.63269 27.3674 3.2 25.6 3.2H6.4Z" fill="#3A589E"/>
</svg>
