<svg width="32" height="32" viewBox="0 0 32 32" fill="none" xmlns="http://www.w3.org/2000/svg">
<g clip-path="url(#clip0_380_3221)">
<path d="M16.0003 2.66602C10.8403 2.66602 6.66699 6.83935 6.66699 11.9993C6.66699 17.5593 12.5603 25.226 14.987 28.146C15.5203 28.786 16.4937 28.786 17.027 28.146C19.4403 25.226 25.3337 17.5593 25.3337 11.9993C25.3337 6.83935 21.1603 2.66602 16.0003 2.66602ZM16.0003 15.3327C14.1603 15.3327 12.667 13.8393 12.667 11.9993C12.667 10.1593 14.1603 8.66602 16.0003 8.66602C17.8403 8.66602 19.3337 10.1593 19.3337 11.9993C19.3337 13.8393 17.8403 15.3327 16.0003 15.3327Z" fill="black"/>
</g>
<defs>
<clipPath id="clip0_380_3221">
<rect width="32" height="32" fill="white"/>
</clipPath>
</defs>
</svg>
