<svg width="141" height="51" viewBox="0 0 141 51" fill="none" xmlns="http://www.w3.org/2000/svg">
<path d="M58.228 22.0713C57.4105 22.0713 56.6914 22.0864 55.9724 22.0561C55.8512 22.0523 55.6999 21.8745 55.6242 21.7421C54.2844 19.4 52.2899 18.1438 49.5573 18.1324C46.7491 18.1211 44.1869 19.9297 43.059 22.6842C41.4316 26.6533 43.4905 31.3035 47.472 32.6657C50.6776 33.7629 55.4652 32.3781 56.2978 27.3647C56.366 26.956 56.1502 26.9598 55.8777 26.9598C54.0233 26.9598 52.165 26.9636 50.3105 26.9674C49.686 26.9674 49.686 26.9712 49.686 26.3582C49.686 25.9685 49.6974 25.575 49.6822 25.1853C49.6709 24.8788 49.8071 24.7577 50.1023 24.7653C50.7609 24.7804 51.4232 24.7993 52.0817 24.8031C54.1595 24.8069 56.2335 24.8069 58.3113 24.8107C58.387 24.8107 58.4627 24.822 58.5346 24.8258C59.019 29.3814 56.6044 34.2473 51.2188 35.0154C45.591 35.8213 41.3105 32.0603 40.3871 27.255C39.4031 22.1394 42.9001 17.0465 47.8164 16.1535C52.2104 15.359 55.8967 17.2735 57.929 21.2237C58.0464 21.4545 58.1107 21.7156 58.2356 22.0675L58.228 22.0713Z" fill="#EBEBEB"/>
<path d="M77.1515 34.7922C77.1515 34.4744 77.1515 34.289 77.1515 34.1036C77.1515 30.1912 77.1515 26.2826 77.1477 22.3703C77.1477 18.9006 79.9446 16.1082 83.4265 15.9909C85.4286 15.9228 87.1657 16.4752 88.5661 17.8828C89.6598 18.9801 90.307 20.3157 90.307 21.9087C90.307 26.0367 90.3032 30.1685 90.3146 34.2965C90.3146 34.6333 90.2389 34.7846 89.8756 34.7695C89.3117 34.7506 88.7477 34.7657 88.1006 34.7657C88.1006 34.5349 88.1006 34.3533 88.1006 34.1755C88.1006 30.248 88.1006 26.3242 88.0968 22.3968C88.0968 19.9979 86.1363 18.0757 83.6914 18.072C81.4585 18.072 79.4791 20.0471 79.4564 22.3324C79.4223 25.821 79.3996 29.3096 79.3807 32.7944C79.3807 33.3393 79.4412 33.8879 79.4337 34.4328C79.4337 34.5538 79.2482 34.7695 79.1384 34.7733C78.4988 34.8073 77.8554 34.7884 77.1515 34.7884V34.7922Z" fill="#EBEBEB"/>
<path d="M140.904 16.3956C140.935 16.9556 140.954 17.4664 140.995 17.9772C141.029 18.4009 140.878 18.5485 140.435 18.5409C138.581 18.5144 136.722 18.5182 134.868 18.5258C134.398 18.5258 133.918 18.5523 133.46 18.6431C132.135 18.9117 131.378 19.7025 131.178 21.0533C131.083 21.6814 131.091 22.3284 131.072 22.9679C131.057 23.4787 131.072 23.9933 131.072 24.5646C131.28 24.5646 131.446 24.5646 131.613 24.5646C134.175 24.5646 136.737 24.5797 139.303 24.5646C139.731 24.5646 139.909 24.6668 139.867 25.1095C139.833 25.4651 139.845 25.8284 139.867 26.1878C139.89 26.5548 139.761 26.6759 139.383 26.6721C137.479 26.6532 135.576 26.6646 133.676 26.6646C132.938 26.6646 132.196 26.6494 131.458 26.6759C131.325 26.6797 131.087 26.8424 131.087 26.9294C131.098 28.0683 131.057 29.2148 131.2 30.3386C131.375 31.6629 132.449 32.5861 133.801 32.6277C135.984 32.6958 138.168 32.6882 140.356 32.7147C140.772 32.7198 140.981 32.9291 140.984 33.3428C140.984 33.6872 140.976 34.0315 140.984 34.3758C140.991 34.6558 140.863 34.7542 140.583 34.7542C138.225 34.7428 135.863 34.7769 133.505 34.7239C131 34.6671 128.903 32.4991 128.884 29.9905C128.862 26.9862 128.816 23.9819 128.892 20.9814C128.941 19.0063 130.36 17.1031 132.692 16.5923C133.271 16.4637 133.872 16.4069 134.467 16.4031C136.59 16.3804 138.713 16.3956 140.908 16.3956H140.904Z" fill="#EBEBEB"/>
<path d="M73.666 32.7226V34.7129C73.5071 34.7242 73.3557 34.7393 73.2043 34.7393C70.9562 34.7393 68.7081 34.7393 66.4562 34.7393C64.1438 34.7356 62.1909 33.1842 61.714 30.9443C61.6156 30.4902 61.5816 30.0135 61.5816 29.5481C61.5664 26.8125 61.6156 24.073 61.5551 21.3374C61.5021 18.9045 63.3566 16.7705 65.9491 16.498C67.2094 16.3656 68.4924 16.411 69.764 16.3959C71.0508 16.3808 72.3414 16.3959 73.6925 16.3959C73.6925 17.0391 73.7114 17.6596 73.6736 18.2764C73.666 18.3672 73.386 18.511 73.2308 18.5148C71.3612 18.5299 69.4877 18.5148 67.6181 18.5261C67.1337 18.5261 66.6379 18.5488 66.1648 18.6434C64.7493 18.9234 63.8864 19.9337 63.7994 21.4093C63.7502 22.2682 63.7691 23.1271 63.7275 23.986C63.7048 24.4249 63.8448 24.5801 64.3103 24.5763C66.6379 24.5574 68.9655 24.5763 71.293 24.5838C71.698 24.5838 72.103 24.6255 72.5533 24.6482C72.5533 25.2498 72.576 25.8098 72.5344 26.366C72.5268 26.4757 72.2657 26.646 72.1181 26.6498C71.0508 26.6725 69.9797 26.6611 68.9087 26.6611C67.3683 26.6611 65.828 26.6725 64.2838 26.6535C63.894 26.6498 63.7275 26.7179 63.754 27.1643C63.7994 28.0195 63.7502 28.8821 63.7805 29.7411C63.841 31.4021 64.9159 32.5561 66.5887 32.6242C68.6778 32.7113 70.767 32.6886 72.8599 32.7151C73.1097 32.7151 73.3595 32.7151 73.6622 32.7151L73.666 32.7226Z" fill="#EBEBEB"/>
<path d="M126.171 16.4713C126.171 17.0199 126.171 17.5951 126.171 18.1702C126.171 18.541 125.906 18.5296 125.641 18.5296C124.165 18.5258 122.685 18.5145 121.209 18.5258C120.724 18.5258 120.232 18.5523 119.756 18.6356C118.253 18.908 117.432 19.8955 117.33 21.5907C117.273 22.4798 117.315 23.3728 117.296 24.262C117.288 24.5571 117.432 24.5836 117.674 24.5836C119.907 24.5911 122.136 24.6214 124.369 24.6176C124.812 24.6176 125.009 24.716 124.956 25.1852C124.907 25.6581 125.103 26.2598 124.854 26.5398C124.638 26.7819 123.938 26.6684 123.468 26.6684C121.599 26.676 119.725 26.6835 117.856 26.6608C117.394 26.6533 117.28 26.8008 117.284 27.2473C117.307 29.5932 117.284 31.9391 117.303 34.285C117.303 34.6823 117.186 34.811 116.792 34.7807C116.387 34.7466 115.975 34.7466 115.566 34.7731C115.172 34.7958 115.059 34.652 115.059 34.2623C115.074 31.3867 115.066 28.5073 115.066 25.6317C115.066 24.209 115.051 22.7863 115.078 21.3636C115.131 18.6961 116.921 16.6718 119.589 16.5016C121.746 16.3616 123.923 16.4751 126.163 16.4751L126.171 16.4713Z" fill="#EBEBEB"/>
<path d="M94.4963 16.4106H96.6687C96.6687 16.7474 96.6687 17.069 96.6687 17.3906C96.6574 21.2084 96.6423 25.0262 96.6498 28.8402C96.6498 29.3964 96.7104 29.9677 96.8391 30.5088C97.1267 31.7385 98.1296 32.5822 99.3975 32.6314C101.014 32.6958 102.633 32.6958 104.253 32.7185C104.613 32.7222 104.972 32.7185 105.366 32.7185V34.7125C105.203 34.72 105.037 34.739 104.87 34.739C103.076 34.739 101.282 34.7238 99.4883 34.739C96.6763 34.7617 94.5077 32.5671 94.5077 29.8882C94.5077 25.6353 94.4699 21.3824 94.4509 17.1296C94.4509 16.8987 94.4812 16.6642 94.4963 16.4106Z" fill="#EBEBEB"/>
<path d="M110.672 34.7238H108.518V16.4258H110.672V34.7238Z" fill="#EBEBEB"/>
<path d="M9.51569 31.5537C12.86 31.5537 15.5712 28.8432 15.5712 25.4997C15.5712 22.1562 12.86 19.4458 9.51569 19.4458C6.17134 19.4458 3.46021 22.1562 3.46021 25.4997C3.46021 28.8432 6.17134 31.5537 9.51569 31.5537Z" fill="#5C478B"/>
<path d="M9.51552 34.0131C14.2185 34.0131 18.031 30.2015 18.031 25.4997C18.031 20.7979 14.2185 16.9863 9.51552 16.9863C4.81253 16.9863 1 20.7979 1 25.4997C1 30.2015 4.81253 34.0131 9.51552 34.0131Z" stroke="#EBEBEB" stroke-miterlimit="10"/>
<path d="M14.341 14.2428C15.0726 14.2428 15.6656 13.6499 15.6656 12.9185C15.6656 12.1871 15.0726 11.5942 14.341 11.5942C13.6094 11.5942 13.0164 12.1871 13.0164 12.9185C13.0164 13.6499 13.6094 14.2428 14.341 14.2428Z" stroke="#EBEBEB" stroke-miterlimit="10"/>
<path d="M9.61036 4.78372C10.6555 4.78372 11.5027 3.9367 11.5027 2.89186C11.5027 1.84701 10.6555 1 9.61036 1C8.56525 1 7.71802 1.84701 7.71802 2.89186C7.71802 3.9367 8.56525 4.78372 9.61036 4.78372Z" stroke="#EBEBEB" stroke-miterlimit="10"/>
<path d="M25.5059 11.2158C26.551 11.2158 27.3982 10.3688 27.3982 9.32399C27.3982 8.27914 26.551 7.43213 25.5059 7.43213C24.4608 7.43213 23.6135 8.27914 23.6135 9.32399C23.6135 10.3688 24.4608 11.2158 25.5059 11.2158Z" stroke="#EBEBEB" stroke-miterlimit="10"/>
<path d="M31.9399 27.1074C32.9851 27.1074 33.8323 26.2604 33.8323 25.2156C33.8323 24.1707 32.9851 23.3237 31.9399 23.3237C30.8948 23.3237 30.0476 24.1707 30.0476 25.2156C30.0476 26.2604 30.8948 27.1074 31.9399 27.1074Z" stroke="#EBEBEB" stroke-miterlimit="10"/>
<path d="M25.8843 42.9993C26.9294 42.9993 27.7766 42.1523 27.7766 41.1074C27.7766 40.0626 26.9294 39.2156 25.8843 39.2156C24.8392 39.2156 23.9919 40.0626 23.9919 41.1074C23.9919 42.1523 24.8392 42.9993 25.8843 42.9993Z" stroke="#EBEBEB" stroke-miterlimit="10"/>
<path d="M9.61036 49.8101C10.6555 49.8101 11.5027 48.9631 11.5027 47.9182C11.5027 46.8734 10.6555 46.0264 9.61036 46.0264C8.56525 46.0264 7.71802 46.8734 7.71802 47.9182C7.71802 48.9631 8.56525 49.8101 9.61036 49.8101Z" stroke="#EBEBEB" stroke-miterlimit="10"/>
<path d="M21.9103 21.0539C22.6419 21.0539 23.235 20.461 23.235 19.7296C23.235 18.9982 22.6419 18.4053 21.9103 18.4053C21.1788 18.4053 20.5857 18.9982 20.5857 19.7296C20.5857 20.461 21.1788 21.0539 21.9103 21.0539Z" stroke="#EBEBEB" stroke-miterlimit="10"/>
<path d="M21.9103 32.0265C22.6419 32.0265 23.235 31.4336 23.235 30.7022C23.235 29.9708 22.6419 29.3779 21.9103 29.3779C21.1788 29.3779 20.5857 29.9708 20.5857 30.7022C20.5857 31.4336 21.1788 32.0265 21.9103 32.0265Z" stroke="#EBEBEB" stroke-miterlimit="10"/>
<path d="M14.341 39.2155C15.0726 39.2155 15.6656 38.6226 15.6656 37.8912C15.6656 37.1598 15.0726 36.5669 14.341 36.5669C13.6094 36.5669 13.0164 37.1598 13.0164 37.8912C13.0164 38.6226 13.6094 39.2155 14.341 39.2155Z" stroke="#EBEBEB" stroke-miterlimit="10"/>
<path d="M9.42041 17.081V4.97314" stroke="#EBEBEB" stroke-miterlimit="10"/>
<path d="M9.61011 46.2153V34.1074" stroke="#EBEBEB" stroke-miterlimit="10"/>
<path d="M30.2369 25.2158H18.126" stroke="#EBEBEB" stroke-miterlimit="10"/>
<path d="M13.705 14.061L12.5166 17.4512" stroke="#EBEBEB" stroke-miterlimit="10"/>
<path d="M20.5477 20.5015L17.2739 21.6214" stroke="#EBEBEB" stroke-miterlimit="10"/>
<path d="M20.8132 30.1007L17.5205 28.6553" stroke="#EBEBEB" stroke-miterlimit="10"/>
<path d="M13.6828 36.7559L12.5398 33.3506" stroke="#EBEBEB" stroke-miterlimit="10"/>
<path d="M24.2986 10.7207L15.6658 19.5405" stroke="#EBEBEB" stroke-miterlimit="10"/>
<path d="M24.2982 40.09L15.7373 31.5312" stroke="#EBEBEB" stroke-miterlimit="10"/>
</svg>
