<svg width="159" height="55" viewBox="0 0 159 55" fill="none" xmlns="http://www.w3.org/2000/svg">
<path d="M65.5862 22.5053C64.6636 22.5053 63.8521 22.5223 63.0406 22.4882C62.9039 22.4839 62.733 22.2832 62.6476 22.1338C61.1356 19.4905 58.8846 18.0728 55.8007 18.06C52.6314 18.0472 49.7398 20.0883 48.4669 23.197C46.6303 27.6765 48.9539 32.9245 53.4473 34.4618C57.065 35.7002 62.4682 34.1373 63.4079 28.4793C63.4848 28.0181 63.2413 28.0224 62.9338 28.0224C60.8408 28.0224 58.7436 28.0266 56.6507 28.0309C55.946 28.0309 55.946 28.0352 55.946 27.3434C55.946 26.9036 55.9588 26.4595 55.9417 26.0196C55.9289 25.6738 56.0826 25.5371 56.4158 25.5456C57.159 25.5627 57.9065 25.5841 58.6497 25.5883C60.9946 25.5926 63.3353 25.5926 65.6802 25.5969C65.7656 25.5969 65.8511 25.6097 65.9322 25.614C66.4789 30.7553 63.7539 36.2468 57.6758 37.1136C51.3244 38.0232 46.4936 33.7786 45.4514 28.3554C44.3409 22.5821 48.2876 16.8344 53.8359 15.8267C58.7949 14.9299 62.9551 17.0907 65.2488 21.5487C65.3812 21.8092 65.4538 22.1039 65.5948 22.501L65.5862 22.5053Z" fill="#EBEBEB"/>
<path d="M86.9428 36.8621C86.9428 36.5034 86.9428 36.2942 86.9428 36.0849C86.9428 31.6695 86.9427 27.2584 86.9385 22.843C86.9385 18.9273 90.095 15.7759 94.0245 15.6435C96.284 15.5666 98.2446 16.1901 99.8249 17.7786C101.059 19.0169 101.79 20.5243 101.79 22.3221C101.79 26.9809 101.785 31.6439 101.798 36.3027C101.798 36.6828 101.713 36.8536 101.303 36.8365C100.666 36.8151 100.03 36.8322 99.2996 36.8322C99.2996 36.5717 99.2996 36.3668 99.2996 36.1661C99.2996 31.7336 99.2996 27.3054 99.2953 22.8729C99.2953 20.1656 97.0828 17.9964 94.3235 17.9921C91.8035 17.9921 89.5696 20.2211 89.544 22.8003C89.5055 26.7375 89.4799 30.6746 89.4585 34.6074C89.4585 35.2223 89.5269 35.8415 89.5183 36.4564C89.5183 36.5931 89.309 36.8365 89.1852 36.8408C88.4633 36.8792 87.7372 36.8578 86.9428 36.8578V36.8621Z" fill="#EBEBEB"/>
<path d="M158.892 16.0998C158.927 16.7318 158.948 17.3083 158.995 17.8848C159.033 18.363 158.863 18.5296 158.363 18.521C156.27 18.4911 154.173 18.4954 152.08 18.5039C151.55 18.5039 151.008 18.5338 150.491 18.6363C148.996 18.9395 148.142 19.832 147.915 21.3564C147.808 22.0653 147.817 22.7955 147.796 23.5172C147.779 24.0936 147.796 24.6744 147.796 25.3192C148.031 25.3192 148.219 25.3192 148.406 25.3192C151.298 25.3192 154.19 25.3363 157.086 25.3192C157.568 25.3192 157.769 25.4345 157.722 25.9341C157.684 26.3355 157.697 26.7454 157.722 27.1511C157.748 27.5653 157.603 27.7019 157.175 27.6977C155.027 27.6763 152.878 27.6891 150.734 27.6891C149.901 27.6891 149.064 27.6721 148.231 27.7019C148.082 27.7062 147.813 27.8898 147.813 27.988C147.826 29.2734 147.779 30.5672 147.941 31.8355C148.137 33.3301 149.35 34.372 150.875 34.419C153.34 34.4958 155.804 34.4873 158.273 34.5172C158.743 34.5229 158.979 34.7592 158.982 35.226C158.982 35.6146 158.974 36.0032 158.982 36.3918C158.991 36.7078 158.845 36.8188 158.529 36.8188C155.868 36.806 153.203 36.8444 150.542 36.7847C147.715 36.7206 145.348 34.2738 145.327 31.4426C145.301 28.0521 145.25 24.6616 145.335 21.2753C145.391 19.0463 146.993 16.8983 149.624 16.3219C150.277 16.1767 150.956 16.1126 151.627 16.1084C154.023 16.0827 156.419 16.0998 158.897 16.0998H158.892Z" fill="#EBEBEB"/>
<path d="M83.0092 34.5258V36.7719C82.8298 36.7847 82.6589 36.8018 82.4881 36.8018C79.951 36.8018 77.4138 36.8018 74.8724 36.8018C72.2626 36.7975 70.0587 35.0467 69.5205 32.5188C69.4094 32.0064 69.371 31.4683 69.371 30.9431C69.3539 27.8557 69.4094 24.7641 69.3411 21.6768C69.2813 18.931 71.3742 16.5226 74.3 16.2152C75.7224 16.0657 77.1704 16.117 78.6055 16.0999C80.0577 16.0828 81.5142 16.0999 83.0391 16.0999C83.0391 16.8258 83.0604 17.5261 83.0177 18.2222C83.0092 18.3246 82.6931 18.4869 82.518 18.4912C80.408 18.5083 78.2937 18.4912 76.1837 18.504C75.637 18.504 75.0774 18.5296 74.5435 18.6364C72.9461 18.9524 71.9722 20.0925 71.874 21.7579C71.8184 22.7272 71.8398 23.6966 71.7928 24.6659C71.7672 25.1612 71.9252 25.3363 72.4506 25.332C75.0774 25.3107 77.7043 25.332 80.3311 25.3406C80.7881 25.3406 81.2452 25.3876 81.7534 25.4132C81.7534 26.0921 81.7791 26.7241 81.7321 27.3518C81.7235 27.4757 81.4288 27.6678 81.2622 27.6721C80.0577 27.6977 78.849 27.6849 77.6402 27.6849C75.9018 27.6849 74.1634 27.6977 72.4207 27.6764C71.9807 27.6721 71.7928 27.749 71.8227 28.2529C71.874 29.2179 71.8184 30.1915 71.8526 31.1609C71.9209 33.0355 73.134 34.3379 75.0219 34.4148C77.3796 34.513 79.7374 34.4873 82.0994 34.5172C82.3813 34.5172 82.6632 34.5172 83.0049 34.5172L83.0092 34.5258Z" fill="#EBEBEB"/>
<path d="M142.264 16.1853C142.264 16.8045 142.264 17.4536 142.264 18.1026C142.264 18.5211 141.965 18.5083 141.666 18.5083C140 18.504 138.33 18.4912 136.664 18.504C136.118 18.504 135.562 18.5339 135.024 18.6279C133.329 18.9353 132.402 20.0498 132.286 21.9629C132.222 22.9664 132.269 23.9741 132.248 24.9776C132.239 25.3107 132.402 25.3406 132.675 25.3406C135.195 25.3492 137.711 25.3833 140.231 25.379C140.731 25.379 140.953 25.4901 140.893 26.0196C140.838 26.5533 141.06 27.2323 140.778 27.5483C140.534 27.8216 139.744 27.6935 139.214 27.6935C137.104 27.702 134.99 27.7106 132.88 27.6849C132.359 27.6764 132.231 27.8429 132.235 28.3468C132.261 30.9944 132.235 33.6419 132.256 36.2894C132.256 36.7378 132.124 36.883 131.68 36.8488C131.223 36.8104 130.757 36.8104 130.296 36.8403C129.852 36.8659 129.724 36.7036 129.724 36.2638C129.741 33.0184 129.732 29.7688 129.732 26.5235C129.732 24.9179 129.715 23.3123 129.745 21.7067C129.805 18.6962 131.825 16.4116 134.836 16.2195C137.271 16.0615 139.727 16.1896 142.256 16.1896L142.264 16.1853Z" fill="#EBEBEB"/>
<path d="M106.518 16.1168H108.97C108.97 16.4969 108.97 16.8598 108.97 17.2228C108.957 21.5314 108.94 25.8401 108.948 30.1444C108.948 30.7721 109.017 31.4169 109.162 32.0276C109.487 33.4154 110.618 34.3676 112.049 34.4232C113.873 34.4957 115.701 34.4958 117.529 34.5214C117.935 34.5256 118.341 34.5214 118.785 34.5214V36.7718C118.602 36.7803 118.414 36.8017 118.226 36.8017C116.201 36.8017 114.176 36.7846 112.152 36.8017C108.978 36.8273 106.531 34.3506 106.531 31.3273C106.531 26.5276 106.488 21.7279 106.467 16.9282C106.467 16.6677 106.501 16.4029 106.518 16.1168Z" fill="#EBEBEB"/>
<path d="M124.773 36.7846H122.343V16.1339H124.773V36.7846Z" fill="#EBEBEB"/>
<path d="M10.6114 33.2066C14.3857 33.2066 17.4454 30.1477 17.4454 26.3743C17.4454 22.6009 14.3857 19.542 10.6114 19.542C6.83705 19.542 3.77734 22.6009 3.77734 26.3743C3.77734 30.1477 6.83705 33.2066 10.6114 33.2066Z" fill="#5C478B"/>
<path d="M10.6104 35.982C15.918 35.982 20.2208 31.6804 20.2208 26.3741C20.2208 21.0677 15.918 16.7661 10.6104 16.7661C5.30271 16.7661 1 21.0677 1 26.3741C1 31.6804 5.30271 35.982 10.6104 35.982Z" stroke="#EBEBEB" stroke-miterlimit="10"/>
<path d="M35.9188 28.1887C37.0983 28.1887 38.0545 27.2327 38.0545 26.0536C38.0545 24.8744 37.0983 23.9185 35.9188 23.9185C34.7394 23.9185 33.7832 24.8744 33.7832 26.0536C33.7832 27.2327 34.7394 28.1887 35.9188 28.1887Z" stroke="#EBEBEB" stroke-miterlimit="10"/>
<path d="M29.0849 46.1232C30.2643 46.1232 31.2205 45.1673 31.2205 43.9881C31.2205 42.8089 30.2643 41.853 29.0849 41.853C27.9054 41.853 26.9492 42.8089 26.9492 43.9881C26.9492 45.1673 27.9054 46.1232 29.0849 46.1232Z" stroke="#EBEBEB" stroke-miterlimit="10"/>
<path d="M10.7177 53.8102C11.8972 53.8102 12.8533 52.8543 12.8533 51.6751C12.8533 50.496 11.8972 49.54 10.7177 49.54C9.53819 49.54 8.58203 50.496 8.58203 51.6751C8.58203 52.8543 9.53819 53.8102 10.7177 53.8102Z" stroke="#EBEBEB" stroke-miterlimit="10"/>
<path d="M24.5985 33.7401C25.4241 33.7401 26.0934 33.071 26.0934 32.2455C26.0934 31.4201 25.4241 30.751 24.5985 30.751C23.7728 30.751 23.1035 31.4201 23.1035 32.2455C23.1035 33.071 23.7728 33.7401 24.5985 33.7401Z" stroke="#EBEBEB" stroke-miterlimit="10"/>
<path d="M16.0574 41.8534C16.8831 41.8534 17.5524 41.1843 17.5524 40.3588C17.5524 39.5334 16.8831 38.8643 16.0574 38.8643C15.2318 38.8643 14.5625 39.5334 14.5625 40.3588C14.5625 41.1843 15.2318 41.8534 16.0574 41.8534Z" stroke="#EBEBEB" stroke-miterlimit="10"/>
<path d="M10.7168 49.753V36.0884" stroke="#EBEBEB" stroke-miterlimit="10"/>
<path d="M33.9962 26.0537H20.3281" stroke="#EBEBEB" stroke-miterlimit="10"/>
<path d="M23.3605 31.5668L19.6445 29.9355" stroke="#EBEBEB" stroke-miterlimit="10"/>
<path d="M15.3134 39.0776L14.0234 35.2344" stroke="#EBEBEB" stroke-miterlimit="10"/>
<path d="M27.2945 42.8403L17.6328 33.1812" stroke="#EBEBEB" stroke-miterlimit="10"/>
<path d="M16.0574 15.6703C16.8831 15.6703 17.5524 15.0011 17.5524 14.1757C17.5524 13.3503 16.8831 12.6812 16.0574 12.6812C15.2318 12.6812 14.5625 13.3503 14.5625 14.1757C14.5625 15.0011 15.2318 15.6703 16.0574 15.6703Z" stroke="#EBEBEB" stroke-miterlimit="10"/>
<path d="M10.7177 4.99481C11.8972 4.99481 12.8533 4.03889 12.8533 2.85971C12.8533 1.68053 11.8972 0.724609 10.7177 0.724609C9.53819 0.724609 8.58203 1.68053 8.58203 2.85971C8.58203 4.03889 9.53819 4.99481 10.7177 4.99481Z" stroke="#EBEBEB" stroke-miterlimit="10"/>
<path d="M28.6571 12.2539C29.8366 12.2539 30.7928 11.298 30.7928 10.1188C30.7928 8.93962 29.8366 7.9837 28.6571 7.9837C27.4776 7.9837 26.5215 8.93962 26.5215 10.1188C26.5215 11.298 27.4776 12.2539 28.6571 12.2539Z" stroke="#EBEBEB" stroke-miterlimit="10"/>
<path d="M24.5994 23.3569C25.4251 23.3569 26.0944 22.6877 26.0944 21.8623C26.0944 21.0369 25.4251 20.3677 24.5994 20.3677C23.7738 20.3677 23.1045 21.0369 23.1045 21.8623C23.1045 22.6877 23.7738 23.3569 24.5994 23.3569Z" stroke="#EBEBEB" stroke-miterlimit="10"/>
<path d="M10.5039 18.8732V5.20862" stroke="#EBEBEB" stroke-miterlimit="10"/>
<path d="M15.3392 15.4649L13.998 19.291" stroke="#EBEBEB" stroke-miterlimit="10"/>
<path d="M23.0618 22.7334L19.3672 23.9974" stroke="#EBEBEB" stroke-miterlimit="10"/>
<path d="M27.2945 11.6948L17.5518 21.6487" stroke="#EBEBEB" stroke-miterlimit="10"/>
</svg>
