<svg width="51" height="51" viewBox="0 0 51 51" fill="none" xmlns="http://www.w3.org/2000/svg">
<g filter="url(#filter0_d_18_3)">
<path d="M25.5 42.9999C22.2493 43.0091 19.0398 42.2736 16.1174 40.8499C15.048 40.3297 14.0232 39.722 13.0537 39.0332L12.7592 38.8182C10.0928 36.85 7.91288 34.2972 6.3866 31.3555C4.80794 28.3109 3.98916 24.9295 4.00011 21.5C4.00011 9.62553 13.6256 0 25.5 0C37.3744 0 46.9999 9.62553 46.9999 21.5C47.0107 24.9279 46.1927 28.3077 44.6156 31.3512C43.0915 34.2912 40.9145 36.8432 38.2516 38.8117C37.2475 39.547 36.1811 40.1942 35.0653 40.7467L34.8933 40.8327C31.9692 42.264 28.7556 43.0054 25.5 42.9999ZM25.5 32.2499C23.9198 32.2468 22.3695 32.6803 21.0201 33.5024C19.6706 34.3245 18.5745 35.5034 17.8525 36.909C20.2298 38.0865 22.847 38.6992 25.5 38.6992C28.153 38.6992 30.7702 38.0865 33.1475 36.909V36.8982C32.4247 35.4942 31.328 34.3171 29.9785 33.4968C28.629 32.6766 27.0792 32.2451 25.5 32.2499ZM25.5 27.9499C27.7879 27.9525 30.0342 28.5621 32.0097 29.7164C33.9851 30.8707 35.6189 32.5284 36.7444 34.5203L36.7745 34.4924L36.8046 34.4666L36.7681 34.4988L36.7466 34.516C39.4016 32.2223 41.2916 29.1714 42.1631 25.7727C43.0345 22.374 42.8457 18.79 41.622 15.5017C40.3983 12.2134 38.1982 9.37795 35.3168 7.37583C32.4355 5.37371 29.0108 4.30067 25.5022 4.30067C21.9935 4.30067 18.5688 5.37371 15.6875 7.37583C12.8061 9.37795 10.606 12.2134 9.38229 15.5017C8.15856 18.79 7.96975 22.374 8.84121 25.7727C9.71266 29.1714 11.6027 32.2223 14.2577 34.516C15.384 32.525 17.0181 30.8683 18.9934 29.7148C20.9688 28.5613 23.2147 27.9523 25.5022 27.9499H25.5ZM25.5 25.7999C23.2192 25.7999 21.0317 24.8939 19.4189 23.2811C17.8061 21.6683 16.9 19.4808 16.9 17.2C16.9 14.9191 17.8061 12.7317 19.4189 11.1189C21.0317 9.50605 23.2192 8.59998 25.5 8.59998C27.7809 8.59998 29.9683 9.50605 31.5811 11.1189C33.1939 12.7317 34.1 14.9191 34.1 17.2C34.1 19.4808 33.1939 21.6683 31.5811 23.2811C29.9683 24.8939 27.7809 25.7999 25.5 25.7999ZM25.5 12.9C24.3596 12.9 23.2659 13.353 22.4595 14.1594C21.6531 14.9658 21.2 16.0595 21.2 17.2C21.2 18.3404 21.6531 19.4341 22.4595 20.2405C23.2659 21.0469 24.3596 21.5 25.5 21.5C26.6404 21.5 27.7341 21.0469 28.5405 20.2405C29.3469 19.4341 29.8 18.3404 29.8 17.2C29.8 16.0595 29.3469 14.9658 28.5405 14.1594C27.7341 13.353 26.6404 12.9 25.5 12.9Z" fill="#0B9246"/>
</g>
<defs>
<filter id="filter0_d_18_3" x="0" y="0" width="51" height="51" filterUnits="userSpaceOnUse" color-interpolation-filters="sRGB">
<feFlood flood-opacity="0" result="BackgroundImageFix"/>
<feColorMatrix in="SourceAlpha" type="matrix" values="0 0 0 0 0 0 0 0 0 0 0 0 0 0 0 0 0 0 127 0" result="hardAlpha"/>
<feOffset dy="4"/>
<feGaussianBlur stdDeviation="2"/>
<feComposite in2="hardAlpha" operator="out"/>
<feColorMatrix type="matrix" values="0 0 0 0 0 0 0 0 0 0 0 0 0 0 0 0 0 0 0.25 0"/>
<feBlend mode="normal" in2="BackgroundImageFix" result="effect1_dropShadow_18_3"/>
<feBlend mode="normal" in="SourceGraphic" in2="effect1_dropShadow_18_3" result="shape"/>
</filter>
</defs>
</svg>
