<svg width="17" height="16" viewBox="0 0 17 16" fill="none" xmlns="http://www.w3.org/2000/svg">
<g id="Group">
<path id="Vector" d="M1.1572 15.9486L1.13909 15.5946L1.4471 15.5493C1.80042 15.5039 2.03595 15.286 2.16278 14.9229C2.24432 14.7051 2.2534 14.224 2.21716 13.4979L1.72795 5.16519C1.68265 4.35734 1.59205 3.86718 1.46521 3.67656C1.29308 3.42241 1.04848 3.31348 0.7314 3.35887L0.423382 3.40425L0.405273 3.05025L3.76632 2.56917C4.99841 2.39671 5.94964 2.4784 6.62004 2.82333C7.29044 3.16825 7.85214 3.82179 8.30511 4.78396C8.75809 5.74612 9.02079 6.89889 9.10232 8.24229C9.21103 10.0395 8.94832 11.5917 8.32322 12.8897C7.61659 14.3511 6.46603 15.1862 4.86251 15.4222L1.16626 15.9486H1.1572ZM3.4583 14.6779C3.98375 14.7777 4.41859 14.8049 4.77191 14.7596C5.71409 14.6234 6.46604 13.9971 7.02773 12.8716C7.58941 11.746 7.81588 10.3028 7.71623 8.53275C7.60751 6.74459 7.21797 5.39211 6.53851 4.44811C5.85905 3.51318 5.02559 3.11379 4.05623 3.24994C3.69385 3.30441 3.2771 3.44964 2.82413 3.70379L3.46734 14.6688L3.4583 14.6779Z" fill="black"/>
<path id="Vector_2" d="M11.1043 2.22427L11.4033 7.32554L13.2152 7.0623C13.6862 6.99876 13.9943 6.83538 14.1392 6.5903C14.3295 6.27261 14.4201 5.73706 14.4019 5.00183L14.6284 4.96552L14.8912 9.45863L14.6647 9.49494C14.5741 8.8777 14.4926 8.47831 14.4201 8.31493C14.3295 8.10616 14.2026 7.94277 14.0305 7.84293C13.8584 7.74308 13.5957 7.71585 13.2514 7.76123L11.4395 8.02447L11.6932 12.2725C11.7294 12.8443 11.7656 13.1893 11.8019 13.3073C11.8381 13.4253 11.9015 13.516 11.9921 13.5796C12.0737 13.6431 12.2368 13.6522 12.4632 13.625L13.8674 13.4253C14.3385 13.3617 14.6737 13.2619 14.8731 13.1257C15.0814 12.9896 15.2716 12.7627 15.4438 12.4359C15.6703 12.0093 15.8968 11.3739 16.1142 10.5479L16.3588 10.5116L15.8334 13.8519L9.46456 14.7687L9.44642 14.4147L9.73633 14.3693C9.92658 14.342 10.1078 14.2422 10.2799 14.0697C10.4067 13.9517 10.4792 13.7884 10.5154 13.5796C10.5517 13.3708 10.5517 12.9533 10.5154 12.3179L10.0262 3.93982C9.98095 3.12289 9.89939 2.62366 9.78162 2.45119C9.61855 2.21519 9.3649 2.12442 9.0297 2.17888L8.73979 2.22427L8.72168 1.87027L15.0905 0.953491L15.3441 3.76736L15.1086 3.80367C14.9817 3.13197 14.864 2.6872 14.7462 2.44212C14.6284 2.20612 14.4654 2.03365 14.2479 1.92473C14.0758 1.85211 13.795 1.85211 13.3782 1.90658L11.1134 2.23335L11.1043 2.22427Z" fill="black"/>
</g>
</svg>
