<svg width="250" height="251" viewBox="0 0 250 251" fill="none" xmlns="http://www.w3.org/2000/svg">
<g id="Group">
<path id="Vector" d="M125.045 250.056C56.493 250.388 -1.14308 193.886 0.0172195 122.79C1.15384 55.9583 55.7827 -0.259695 125.709 0.00090238C193.882 0.237809 251.258 56.2663 249.979 127.599C248.795 194.336 194.072 250.151 125.045 250.033V250.056ZM125.093 242.309C189.88 242.12 241.194 190.213 242.165 127.173C242.662 94.8821 231.604 66.785 209.061 43.5681C186.115 19.9011 157.842 7.86621 124.974 7.8899C59.8792 7.93728 8.75499 60.1279 7.87884 123.287C6.95534 189.858 60.637 242.333 125.093 242.309Z" fill="#C2C3C5"/>
<path id="Vector_2" d="M195.09 148.66C195.042 148.849 195.019 149.039 194.948 149.371C195.35 149.252 195.658 149.157 195.99 149.039C196.274 148.921 196.558 148.778 196.937 148.613C196.653 148.352 196.44 148.139 196.061 147.783C198.05 147.404 199.873 147.049 201.696 146.694L201.886 147.025C200.465 148.257 199.068 149.465 197.647 150.697C197.553 150.603 197.481 150.532 197.387 150.437C197.434 150.2 197.481 149.963 197.529 149.726C197.387 149.679 197.292 149.631 197.221 149.631C194.593 150.081 193.835 152.095 192.959 154.275C190.283 160.837 186.589 166.831 182.019 172.256C171.552 184.741 158.458 193.009 142.64 196.965C138.069 198.102 133.476 198.932 128.763 198.932C124.43 198.932 120.026 199.145 115.763 198.6C102.716 196.894 90.8522 192.038 80.3385 184.054C76.1946 180.903 72.4058 177.349 68.9486 173.298C71.7191 170.361 71.3876 167.091 69.9905 163.704C70.5115 167.968 69.6827 171.806 66.4623 174.838C65.0415 172.943 64.4258 170.858 64.5205 168.536C64.5442 167.921 64.2127 167.305 64.0233 166.665C62.7446 167.186 61.6553 167.636 60.5424 168.11C59.5005 166.286 60.0451 164.651 60.5897 162.993C61.1344 161.335 60.4003 160.434 58.7427 160.742C57.6771 160.932 56.5879 161.098 55.3565 161.287C55.546 159.439 56.5879 158.041 57.7718 156.739C55.7354 156.454 53.699 156.17 51.6862 155.886C51.6388 155.696 51.5915 155.507 51.5441 155.317C52.8228 154.606 54.1252 153.919 55.4039 153.209C55.7117 153.043 55.9722 152.758 56.2327 152.522C55.8775 152.332 55.5223 151.953 55.1671 151.977C52.2545 152.071 50.0523 150.603 47.5423 148.66C49.413 148.162 50.9284 147.783 52.6334 147.333C50.2417 146.457 48.2763 145.154 46.8556 142.879C48.892 141.979 50.9758 142.808 52.9886 142.358C53.0833 141.411 52.6807 141.174 51.6625 141.008C49.1525 140.605 47.1634 139.302 46.1215 136.838C45.8137 136.104 45.5058 135.346 45.0322 134.232C47.3528 134.659 49.4366 135.038 51.6152 135.417C51.8283 134.303 51.402 133.403 50.4785 132.408C49.4366 131.295 48.5368 129.897 48.0869 128.452C47.4949 126.557 47.4002 124.495 46.9976 122.079C48.4894 122.979 49.6734 123.714 51.0705 124.543C50.9758 117.436 52.1598 110.636 54.0778 104.24C56.7773 103.932 59.311 103.648 61.9631 103.363C59.1689 105.424 57.5351 108.196 56.5405 111.466C59.9504 111.939 62.9577 110.921 65.8466 109.404C65.8939 109.452 65.965 109.523 66.0124 109.57C64.9468 111.939 63.8575 114.308 62.8156 116.678C62.2947 117.886 62.7919 118.028 63.8338 117.649C66.3439 116.701 68.8539 115.777 71.1035 114.924C70.2273 117.128 69.1617 119.781 67.9541 122.79C71.5534 122.269 74.3949 121.084 76.9997 118.62C75.8394 121.795 74.537 124.59 74.9396 127.812C77.8048 127.528 80.1254 126.154 82.3039 124.448C82.3513 124.495 82.4223 124.567 82.4697 124.614C81.6172 127.338 81.1199 130.11 81.5462 133.071C84.364 132.242 86.4715 130.513 88.1528 128.144C87.987 130.797 87.8449 133.308 87.7029 135.962C90.4497 135.227 91.9652 133.616 93.4807 131.342C93.4807 134.043 92.2257 136.388 93.6464 138.757C94.641 138.283 95.6829 137.786 96.5827 137.336C97.08 139.563 97.6246 141.884 98.0508 144.206C98.1219 144.561 97.7904 145.13 97.4825 145.391C95.9434 146.646 94.3568 147.831 92.794 149.039C93.3386 149.323 93.978 149.679 94.8541 150.176C93.2439 151.053 91.8705 151.811 90.3313 152.64C91.089 153.066 91.6574 153.398 92.2493 153.73C92.2967 153.872 92.3441 154.014 92.3677 154.156C90.7338 154.772 89.171 155.554 87.4897 155.933C85.8795 156.288 84.1983 156.17 82.5407 156.288C81.0252 156.407 79.5334 156.644 78.6099 158.089C78.4678 158.302 78.16 158.515 77.8995 158.563C76.976 158.681 75.8867 158.492 75.6736 159.795C75.4605 161.098 76.2656 162.258 77.568 162.709C77.2838 164.367 78.4205 165.575 80.1254 165.362C80.3859 166.381 81.9961 167.541 82.9433 167.423C84.0088 167.281 84.364 166.428 84.1746 164.177C83.7484 165.338 83.8194 166.807 82.0908 166.286C80.8831 165.93 80.5516 165.22 80.9779 164.414C80.2438 164.296 79.3913 164.414 78.8467 164.059C77.9942 163.514 78.1837 162.709 78.8704 162.045C78.9888 161.974 79.0835 161.903 79.2019 161.808C79.0361 161.808 78.8704 161.808 78.7046 161.808C78.1363 161.714 77.2838 161.808 77.0707 161.5C76.7629 161.027 76.6682 159.937 76.9523 159.7C77.7811 159.037 78.7046 159.226 79.1782 160.174C79.4624 159.416 79.5571 158.349 80.1254 157.947C80.7647 157.473 81.8066 157.544 82.6828 157.449C83.9378 157.307 85.2165 157.26 86.4715 157.141C87.5371 157.046 88.2001 157.426 88.508 158.468C88.8868 159.795 89.6446 160.268 91.0654 159.747C93.0071 159.036 95.0199 158.492 97.08 157.876C96.9379 158.515 96.7721 159.179 96.5117 160.387C98.4771 159.344 100.135 158.468 102.029 157.497C101.863 158.326 101.721 158.965 101.555 159.771C104.586 159.179 107.025 155.625 110.625 157.947C108.659 160.411 107.025 163.064 106.197 166.452C107.404 166.215 108.423 166.025 109.441 165.836C109.109 167.66 108.778 169.508 108.375 171.782C109.938 171.142 111.075 170.645 112.495 170.076V176.473C114.058 175.336 115.242 174.483 116.474 173.583C117.042 175.478 117.61 177.397 118.297 179.671C119.528 178.321 120.499 177.255 121.446 176.212C122.393 178.013 123.341 179.837 124.312 181.637H124.761C125.756 179.718 126.727 177.8 127.721 175.904C128.716 177.018 129.734 178.202 131.108 179.742C131.7 177.397 132.197 175.478 132.718 173.44C133.925 174.317 135.204 175.241 136.72 176.354C136.885 174.08 137.027 172.137 137.17 170.171C138.259 170.645 139.372 171.142 140.816 171.782C140.485 169.626 140.201 167.802 139.916 165.883C140.935 166.073 141.953 166.262 143.137 166.499C142.474 163.135 140.911 160.482 138.803 158.089C140.65 157.236 142.45 156.715 144.344 157.899C145.268 158.492 146.262 158.965 147.233 159.463C147.565 159.629 147.967 159.724 148.465 159.889C148.275 159.06 148.11 158.421 147.896 157.449C149.696 158.444 151.259 159.297 153.106 160.316C153.059 159.273 153.011 158.563 152.964 157.781C155.379 158.492 157.747 159.226 160.162 159.818C160.565 159.913 161.512 159.273 161.583 158.847C161.891 157.236 162.791 156.739 164.306 156.881C165.064 156.952 165.822 156.881 166.603 156.881C169.303 156.881 169.658 157.212 169.729 159.558C170.51 159.392 171.339 159.226 172.168 159.06C172.215 159.534 172.428 160.032 172.31 160.458C171.979 161.856 170.889 161.334 169.611 161.098C170.747 161.927 171.008 162.543 170.25 163.467C169.397 164.509 168.758 163.751 168.048 163.419C167.953 163.372 167.858 163.325 167.74 163.277C167.787 163.372 167.811 163.49 167.858 163.585C168.095 165.054 167.764 165.504 166.366 165.67C165.443 165.788 165.206 165.457 164.993 163.538C164.259 164.627 164.448 165.931 165.396 166.475C166.13 166.902 168.071 166.262 168.569 165.457C168.711 165.243 168.924 164.959 169.137 164.888C170.937 164.462 171.363 163.988 171.505 162.045C172.902 161.95 173.257 160.837 173.376 159.771C173.447 159.179 172.949 158.539 172.594 157.615C179.248 152.356 186.21 146.859 193.314 141.245C193.409 141.695 193.48 142.027 193.598 142.571C194.782 140.937 195.848 139.421 196.937 137.928C196.984 137.857 197.055 137.786 197.103 137.691C196.984 137.691 196.889 137.691 196.771 137.691C195.066 138.426 193.385 139.16 191.538 139.965C191.964 140.179 192.248 140.321 192.722 140.534C185.334 146.362 178.088 152.119 170.487 158.113C170.534 157.283 170.416 156.762 170.605 156.383C174.915 147.641 179.248 138.923 183.582 130.181C183.582 130.158 183.653 130.134 183.937 130.015C184.008 130.229 184.102 130.56 184.221 130.868C184.339 130.797 184.434 130.726 184.552 130.655C184.908 128.902 185.239 127.173 185.594 125.419C185.5 125.372 185.381 125.301 185.286 125.254C184.102 126.58 182.942 127.907 182.066 128.902C182.208 129.731 182.469 130.252 182.327 130.584C178.135 139.16 173.897 147.736 169.847 155.933C168.261 155.933 166.911 155.933 165.538 155.933C162.672 155.886 159.902 155.53 157.368 153.73C158.102 153.398 158.742 153.114 159.713 152.664C158.079 151.763 156.682 150.982 155.048 150.081C155.9 149.726 156.492 149.489 157.274 149.157C156.468 148.613 155.734 148.186 155.048 147.665C154.29 147.073 153.603 146.409 152.869 145.793C152.04 145.083 151.78 144.372 152.111 143.187C152.656 141.221 152.822 139.16 153.13 137.146C154.266 137.739 155.403 138.355 156.989 139.184C156.871 136.341 156.753 133.972 156.658 131.65C158.008 133.379 159.57 135.133 162.388 135.772C162.152 133.119 161.915 130.631 161.678 127.978C163.454 130.371 165.798 131.911 168.734 132.835C168.829 129.85 168.308 127.173 167.503 124.543C167.55 124.495 167.598 124.448 167.645 124.401C169.469 125.396 171.268 126.414 173.139 127.338C173.66 127.599 174.323 127.528 175.317 127.67C174.678 124.709 174.086 122.008 173.494 119.236C175.602 120.918 177.993 122.577 181.024 123.074C181.403 120.042 180.456 117.483 178.751 114.759C181.521 116.204 183.866 118.075 187.11 117.767C187.347 114.569 186.044 111.987 183.842 109.357C187.157 110.707 190.188 112.01 193.645 111.11C193.148 107.343 190.756 104.974 187.654 102.984C190.378 103.387 192.935 103.766 195.895 104.216C198.002 111.466 198.973 119.355 198.879 127.765C199.731 126.865 200.37 126.178 201.057 125.443C200.678 125.23 200.347 125.064 199.992 124.851C201.72 123.785 203.354 122.766 204.988 121.747L205.201 121.961C204.301 123.643 203.378 125.301 202.336 127.244C202.123 126.699 202.028 126.414 201.886 126.059C201.507 126.462 201.152 126.841 200.797 127.22C199.447 128.523 198.145 129.85 198.571 132.005C198.594 132.148 198.405 132.313 198.334 132.479C196.511 133.332 194.711 134.185 192.651 135.156C193.243 135.441 193.551 135.606 193.882 135.772C192.722 136.862 191.562 137.904 190.425 138.994C186.778 142.5 183.155 146.007 179.509 149.489C179.414 149.608 179.343 149.726 179.248 149.845C179.177 149.939 179.106 150.058 179.011 150.152C179.13 150.081 179.272 150.01 179.39 149.939C179.509 149.868 179.603 149.773 179.722 149.702C181.427 148.257 183.179 146.859 184.837 145.367C188.081 142.429 191.254 139.444 194.545 136.388C194.735 136.838 194.853 137.146 194.948 137.407C196.084 135.82 197.174 134.303 198.287 132.764C198.31 133.024 198.358 133.308 198.405 133.853C199.257 133.166 199.944 132.598 200.678 131.982C200.276 131.769 199.944 131.603 199.494 131.389C201.389 130.537 203.188 129.707 204.964 128.902C205.012 128.973 205.083 129.068 205.13 129.139C203.993 130.702 202.857 132.242 201.578 133.995C201.46 133.427 201.412 133.119 201.341 132.764C199.257 134.161 197.292 135.583 197.813 138.71C198.31 138.402 198.784 138.094 199.305 137.762C198.95 137.549 198.642 137.383 198.121 137.075C200.252 136.412 202.17 135.82 204.064 135.227C204.112 135.298 204.183 135.369 204.23 135.417C202.999 136.72 201.744 138.023 200.489 139.302C200.418 139.373 199.992 139.113 199.731 138.994C199.802 138.899 199.849 138.805 199.92 138.71C199.802 138.734 199.684 138.757 199.565 138.781C198.594 139.539 197.008 139.681 197.008 141.434C197.008 141.648 196.463 141.908 196.132 142.027C194.782 142.5 193.432 142.927 191.964 143.401C192.177 143.661 192.367 143.851 192.675 144.23C192.106 144.633 191.562 145.059 190.993 145.438C187.607 147.665 184.221 149.868 180.835 152.095C180.361 152.403 179.935 152.782 179.485 153.138C179.296 153.232 179.082 153.327 178.893 153.446C178.893 153.517 178.917 153.564 178.94 153.635C179.224 153.564 179.509 153.493 179.793 153.446C183.155 151.384 186.518 149.323 189.88 147.239C191.017 146.528 192.106 145.793 193.314 144.988C193.432 145.343 193.527 145.604 193.693 146.101C194.545 145.177 195.279 144.396 196.013 143.614C197.339 144.751 197.908 143.164 198.973 142.974C198.547 142.69 198.239 142.5 197.837 142.24C199.778 141.648 201.578 141.126 203.354 140.581C203.425 140.7 203.496 140.818 203.591 140.913C202.312 142.263 201.033 143.59 199.589 145.106C199.542 144.561 199.494 144.23 199.423 143.519C198.073 144.561 196.984 145.628 195.706 146.315C194.616 146.883 193.266 146.978 192.035 147.286C191.798 147.333 191.562 147.357 191.183 147.404C191.419 147.736 191.585 147.997 191.869 148.376C185.76 151.455 179.698 154.488 173.636 157.544C173.707 157.734 173.802 157.947 173.873 158.136C174.299 158.018 174.749 157.947 175.152 157.734C180.385 155.128 185.618 152.474 190.851 149.868C191.348 149.608 191.964 148.778 192.603 149.821C192.627 149.868 193.195 149.679 193.456 149.513C193.953 149.181 194.427 148.778 194.924 148.399C194.995 148.47 195.066 148.518 195.137 148.589L195.09 148.66ZM160.068 164.675C160.21 164.604 160.376 164.509 160.518 164.438C160.494 164.367 160.447 164.32 160.423 164.248C160.257 164.343 160.091 164.438 159.926 164.533C159.831 164.604 159.736 164.675 159.641 164.746C159.784 164.722 159.926 164.699 160.068 164.675ZM54.433 140.25C54.362 140.463 54.2436 140.676 54.2673 140.866C54.2909 141.387 54.3857 141.932 54.433 142.453C54.9066 142.358 55.3565 142.263 55.8301 142.192C55.6407 141.648 55.4986 141.103 55.2618 140.581C55.1434 140.368 54.8356 140.25 54.5988 140.084C53.0596 137.975 51.1416 136.436 48.2053 136.057C50.4549 137.573 52.4676 138.923 54.4567 140.25H54.433ZM55.3092 124.093C55.3092 124.093 55.4513 124.211 55.5223 124.282C54.2673 126.817 54.0778 129.423 55.0013 132.1C57.7718 130.584 59.1453 123.264 57.0141 120.918C55.2855 121.913 54.1015 123.406 53.1543 125.159C52.6334 126.13 52.7755 126.817 53.6516 127.338C54.2199 126.225 54.7645 125.159 55.3092 124.093ZM185.997 135.938C186.565 134.043 187.133 132.124 187.82 129.873C186.115 131.413 184.694 132.692 183.155 134.09C183.676 134.161 183.984 134.185 184.363 134.232C180.929 139.61 177.543 144.941 174.157 150.271C174.347 150.389 174.536 150.508 174.725 150.65C178.23 145.367 181.735 140.06 185.239 134.754C185.547 135.227 185.784 135.559 186.021 135.914C184.789 137.573 183.558 139.231 182.35 140.913C181.095 142.643 179.84 144.372 178.585 146.101C178.751 146.22 178.917 146.338 179.059 146.48C184.387 139.752 189.715 133.024 195.09 126.249C195.327 126.651 195.469 126.936 195.729 127.386C196.487 125.538 197.15 123.856 197.837 122.197C197.884 122.103 197.931 121.984 197.979 121.889C197.86 121.913 197.766 121.937 197.647 121.961C196.203 123.05 194.758 124.14 193.172 125.325C193.764 125.538 194.024 125.633 194.332 125.751C192.059 128.618 189.904 131.389 187.702 134.138C187.181 134.777 186.589 135.346 186.021 135.962L185.997 135.938ZM57.8666 141.387C57.8666 141.387 58.056 141.505 58.1034 141.482C62.0342 138.497 63.6207 134.682 62.1052 129.826C58.3402 131.034 56.3274 136.009 56.5405 138.757C56.6116 139.705 57.1088 140.605 57.4403 141.529C57.4403 141.529 57.7482 141.434 57.9139 141.387H57.8902H57.8666ZM197.505 127.86C195.895 128.831 194.285 129.802 192.532 130.845C193.077 131.01 193.409 131.105 193.835 131.247C186.376 139.397 179.035 147.452 171.694 155.483C171.813 155.625 171.931 155.767 172.073 155.909C172.926 155.151 173.826 154.464 174.607 153.635C181.143 146.504 187.654 139.35 194.19 132.219C194.285 132.124 194.427 132.053 194.545 131.982C194.664 132.266 194.758 132.527 195.019 133.214C195.99 131.2 196.771 129.565 197.576 127.907C197.624 127.86 197.695 127.836 197.742 127.788C197.695 127.741 197.671 127.694 197.624 127.646C197.576 127.717 197.553 127.765 197.505 127.836V127.86ZM71.2455 152.285C75.5789 150.366 77.7338 146.433 77.2838 140.984C75.3184 142.358 73.5425 143.59 71.7191 144.846C71.6244 142.974 71.506 141.032 71.4113 139.136C68.3566 141.103 66.4386 145.58 67.1963 149.252C67.3858 150.152 67.6462 150.911 66.5333 151.479C66.2018 151.645 65.9413 152.545 66.0834 152.924C66.2491 153.351 66.8885 153.825 67.3621 153.872C67.812 153.919 68.4513 153.564 68.7592 153.185C69.3512 152.474 69.8011 151.598 70.3457 150.721C70.6536 151.148 70.843 151.384 71.0324 151.621C71.435 148.992 72.169 146.528 74.4423 144.609C73.3057 147.31 72.2638 149.821 71.2455 152.308V152.285ZM64.9941 136.72C62.863 138.663 61.4659 140.913 61.3711 143.827C61.3475 144.538 61.5369 145.225 60.5897 145.722C59.8083 146.125 60.0924 147.31 60.8976 147.665C61.5606 147.973 62.1999 148.352 62.6972 148.636C62.5314 146.101 61.9395 143.258 63.5023 140.534V149.821C67.22 145.722 67.8594 142.192 64.9941 136.744V136.72ZM86.14 162.164C85.3823 163.206 85.2402 163.893 86.3058 164.793C89.9051 167.826 92.2967 171.64 93.1965 176.307C93.2676 176.639 93.5991 177.018 93.9069 177.16C94.6647 177.468 95.4698 177.61 96.3933 177.871C94.9488 171.332 91.3495 166.31 86.14 162.164ZM158.907 182.301C159.476 181.164 160.02 180.121 160.518 179.055C161.11 177.8 162.152 176.544 162.128 175.312C162.08 173.18 163.241 171.664 163.975 169.911C164.283 169.152 164.709 168.465 165.017 167.707C165.111 167.494 164.898 167.162 164.756 166.546C162.909 169.484 162.08 172.469 159.807 174.767C158.268 176.354 157.581 178.771 156.397 181.069C157.155 180.903 157.629 180.808 158.15 180.69C158.41 181.211 158.647 181.732 158.931 182.324L158.907 182.301ZM147.233 175.881C149.317 174.435 151.093 172.374 153.651 171.19C155.995 170.124 157.984 168.276 160.115 166.736C160.778 166.262 161.394 165.717 162.009 165.22C161.891 165.078 161.749 164.935 161.631 164.793C161.323 164.983 160.991 165.149 160.707 165.338C158.529 166.783 156.35 168.228 154.148 169.65C153.769 169.911 153.319 170.195 152.893 170.242C149.743 170.574 147.825 173.085 145.268 174.175C146.002 174.791 146.547 175.288 147.233 175.881ZM163.62 164.367C162.862 165.196 162.317 165.788 161.749 166.357C160.968 167.186 160.328 168.418 159.381 168.726C157.534 169.342 156.516 170.787 155.237 171.972C154.243 172.872 153.319 173.867 152.182 175.028C153.011 175.122 153.461 175.17 153.84 175.217C153.935 175.62 154.029 175.952 154.171 176.52C155.592 174.672 156.824 172.967 158.126 171.356C158.6 170.763 159.357 170.408 159.878 169.839C161.181 168.394 162.436 166.925 163.667 165.409C163.785 165.243 163.667 164.888 163.62 164.343V164.367ZM146.712 172.232C150.288 170.266 154.006 168.252 157.723 166.215C158.055 166.025 158.386 165.836 158.694 165.623C158.955 165.433 159.192 165.196 159.452 165.007C156.634 165.812 154.266 167.447 151.306 167.921C149.033 168.276 146.949 169.863 144.818 170.882C145.528 171.403 146.144 171.853 146.736 172.28L146.712 172.232ZM65.9413 171.071C66.8175 167.921 67.7173 164.699 68.6171 161.571C66.3675 163.893 64.9468 169.247 65.9413 171.071ZM73.3057 153.114C73.0689 153.114 72.8558 153.114 72.619 153.114C72.2164 153.706 71.435 154.322 71.4823 154.867C71.5297 155.459 72.2874 156.336 72.8558 156.454C73.7319 156.62 74.5607 155.886 74.466 154.914C74.3949 154.275 73.7082 153.706 73.3057 153.114ZM72.5242 160.837C73.4004 160.979 73.945 160.529 73.9687 159.534C73.9687 158.586 73.4004 157.994 72.4769 157.994C71.5297 157.994 70.8667 158.515 70.8193 159.51C70.7719 160.576 71.4587 160.861 72.5242 160.837ZM54.1015 132.906C53.6516 129.85 52.3019 127.362 49.6261 125.704L54.1015 132.906ZM61.4185 149.963C61.1817 149.963 60.9449 149.963 60.7081 149.963C60.3529 150.508 59.6425 151.124 59.7136 151.621C59.7846 152.166 60.495 152.924 61.0633 153.043C61.9631 153.232 62.6498 152.545 62.4841 151.598C62.3657 151.005 61.7974 150.508 61.4185 149.963ZM59.6899 144.254C59.6899 144.017 59.6899 143.78 59.6899 143.566C59.1216 143.211 58.5059 142.524 58.0086 142.619C57.4403 142.714 56.9904 143.495 56.4932 143.993C57.0141 144.467 57.4877 145.225 58.056 145.296C58.5533 145.367 59.1453 144.633 59.6899 144.254ZM61.5369 165.67C63.3129 163.23 64.8757 161.098 66.4623 158.965C63.9049 160.411 62.3657 162.614 61.5369 165.67ZM66.3202 157.662C66.9122 156.833 67.6226 156.265 67.5752 155.815C67.5042 155.317 66.6991 154.583 66.2491 154.606C65.7519 154.606 64.9468 155.364 64.8994 155.838C64.852 156.288 65.6335 156.833 66.3202 157.662ZM56.1143 135.014C56.0196 133.735 55.4276 133.261 54.6698 133.427C54.1726 133.522 53.77 134.185 53.3438 134.611C53.8174 135.038 54.2199 135.677 54.7882 135.843C55.1434 135.938 55.688 135.322 56.138 135.014H56.1143ZM77.9942 156.81C77.1891 156.265 76.6445 155.649 76.2893 155.743C75.8157 155.886 75.4842 156.573 75.1053 156.999C75.5315 157.354 75.9578 157.947 76.4077 157.97C76.8102 157.97 77.2602 157.378 77.9942 156.786V156.81ZM63.8812 156.288C61.4895 155.957 59.7136 156.928 58.0797 158.373C59.9267 157.71 61.7974 157.046 63.8812 156.288ZM51.1179 143.874C53.2964 144.775 55.1434 145.556 57.0141 146.315C55.4749 144.727 53.6753 143.851 51.1179 143.874ZM167.195 159.368V162.282C167.361 162.353 167.55 162.424 167.716 162.495C168.095 161.785 168.545 161.098 168.758 160.339C168.805 160.197 167.858 159.771 167.195 159.392V159.368ZM70.9851 157.046C70.9851 156.857 70.9851 156.667 71.0087 156.454C70.6299 156.17 70.2273 155.601 69.9195 155.649C69.5169 155.696 68.9013 156.217 68.8539 156.573C68.8302 156.928 69.3748 157.52 69.7774 157.639C70.0852 157.734 70.5825 157.26 70.9851 157.046ZM82.3276 160.008C81.5935 160.292 81.0489 160.529 80.5043 160.742C80.8358 161.477 81.1673 162.211 81.4988 162.969L81.9014 162.78C82.0198 162.022 82.1382 161.24 82.3513 160.008H82.3276ZM58.7427 148.968C59.1689 148.234 59.5952 147.807 59.5952 147.381C59.5952 147.073 58.9558 146.433 58.7664 146.504C58.3402 146.646 57.7482 147.073 57.7008 147.428C57.6771 147.807 58.2218 148.234 58.719 148.968H58.7427ZM65.0888 154.061C64.3785 153.54 63.9759 153.043 63.6917 153.114C63.2655 153.209 62.9103 153.659 62.5078 153.967C62.8393 154.346 63.1234 154.938 63.526 155.056C63.8338 155.128 64.3074 154.583 65.0888 154.061ZM60.6134 153.896C60.6134 153.753 60.5897 153.588 60.566 153.446C58.6717 153.777 56.7536 154.109 54.8593 154.441C54.8829 154.583 54.9066 154.748 54.9303 154.891C56.8247 154.559 58.719 154.227 60.6134 153.896ZM59.4057 149.892L59.4768 149.442C57.7245 149.157 55.9722 148.873 54.2199 148.589L54.1726 148.897C55.9248 149.229 57.6771 149.537 59.4057 149.868V149.892ZM83.2037 162.093C82.6591 162.898 82.3039 163.419 81.8066 164.13C82.5644 164.201 83.109 164.248 83.7957 164.32C83.5826 163.514 83.4405 162.969 83.2037 162.093ZM162.057 164.864C162.057 164.864 162.152 164.722 162.175 164.651C162.175 164.651 162.104 164.556 162.08 164.556C162.009 164.58 161.962 164.651 161.891 164.675C161.938 164.722 161.986 164.793 162.033 164.841L162.057 164.864Z" fill="#025489"/>
<path id="Vector_3" d="M166.959 64.1553C164.733 65.7426 162.507 67.0456 160.613 68.7513C157.913 71.1915 157.345 74.366 157.842 77.967C158.339 81.5206 158.647 85.1453 158.482 88.7226C158.268 92.8921 154.409 96.73 150.525 97.654C149.152 97.9856 147.565 97.2749 146.073 97.1091C142.948 96.73 139.822 96.422 136.696 96.043C135.796 95.9482 134.849 95.9482 134.731 94.5742C134.565 92.7737 134.186 90.9732 133.902 89.1964C133.594 87.2301 133.429 85.1926 132.908 83.2737C132.576 81.9944 133.073 81.7812 134.068 81.7101C135.512 81.5917 136.673 80.952 137.833 79.649C134.47 80.0755 132.316 78.3697 130.232 76.4508C128.977 75.2899 127.556 74.6977 125.804 74.8398C123.625 74.982 121.447 74.9583 119.292 75.1715C117.705 75.3136 117.161 76.0007 117.208 77.3273C115.337 77.8012 113.206 77.8485 112.141 79.8622C111.454 81.1889 111.762 82.563 112.448 83.8423C113.893 82.1366 116.474 81.7101 118.534 82.871C120.807 84.1266 121.968 86.4719 121.186 88.6041C120.902 89.3622 120.144 89.9308 119.6 90.5704C118.25 92.134 116.948 93.7924 115.456 95.2138C114.864 95.7587 113.822 95.9245 112.946 96.043C109.417 96.5405 105.865 96.9669 102.314 97.3934C101.816 97.4407 101.272 97.4407 100.798 97.2986C94.7124 95.4744 90.5685 91.6839 89.2898 85.3111C89.0293 83.9607 89.4318 82.4445 89.6923 81.0231C90.2133 78.4408 91.1605 75.9059 91.3736 73.2999C91.6577 69.6516 90.6632 66.2638 87.7269 63.7289C87.2296 63.3024 86.7324 62.8523 86.0693 62.2364C94.3098 57.0955 103.119 53.7077 112.59 52.1915C132.292 49.088 150.478 53.0918 166.959 64.1316V64.1553Z" fill="#015288"/>
<path id="Vector_4" d="M37.0049 119.828C37.7153 104.737 42.4275 90.9494 50.3128 78.0616C51.6626 78.6302 52.8939 79.1514 54.291 79.7437C41.6934 100.118 37.739 122.008 43.4694 145.177C48.4658 165.338 59.6426 181.614 76.6682 193.672C108.044 215.918 149.767 213.833 178.846 189.455C194.735 176.141 204.514 159.108 207.806 138.615C211.05 118.312 207.356 99.1938 196.747 81.331C198.026 80.9519 199.21 80.5729 200.394 80.3123C200.678 80.2412 201.199 80.5492 201.341 80.8335C202.951 84.008 204.633 87.1826 206.077 90.4282C207.261 93.1289 208.327 95.9244 209.179 98.7673C210.126 101.918 210.908 105.14 211.523 108.362C212.163 111.726 212.542 115.138 212.968 118.525C213.11 119.71 213.015 120.918 213.039 122.103C213.039 124.993 213.039 127.883 213.039 130.773C212.258 135.867 211.784 141.032 210.624 146.03C207.095 161.192 199.802 174.388 189.123 185.665C178.064 197.344 164.804 205.447 149.317 209.877C143.468 211.559 137.525 212.791 131.415 213.028C127.532 213.17 123.601 213.478 119.741 213.241C115.882 213.004 111.998 212.412 108.209 211.606C103.71 210.658 99.1401 209.663 94.8541 208.053C83.9615 204.001 74.1108 198.102 65.5151 190.19C56.5169 181.898 49.5314 172.161 44.4403 161.026C41.7645 155.151 39.8228 149.039 38.5441 142.761C37.6916 138.639 37.5022 134.374 37.0049 130.181C37.0049 126.722 37.0049 123.263 37.0049 119.805V119.828Z" fill="#C51532"/>
<path id="Vector_5" d="M59.3344 76.0953C60.5184 74.6265 61.3709 73.5604 62.3181 72.3759C60.5894 72.0205 58.9319 71.7836 57.3453 71.3572C55.7588 70.9308 54.2196 70.2911 52.3253 69.6041C53.675 68.0642 54.7643 66.7849 55.9009 65.4819C52.7041 64.7949 49.91 63.2787 47.542 60.7911C48.7497 59.038 50.4546 58.2562 52.2306 57.8298C51.307 56.5742 50.2178 55.3423 49.4364 53.9682C48.6549 52.5942 48.3945 51.0543 49.1759 49.4433C55.4036 54.1814 62.6022 56.3847 69.7298 58.8011C75.0577 60.6016 80.0304 62.947 84.1506 66.9507C86.8975 69.6278 87.0159 72.7313 86.3529 76.0243C85.974 77.8721 85.0742 79.6016 84.6479 81.4494C83.5587 86.1402 84.4348 90.4993 87.7263 94.0529C89.6206 96.0903 91.9886 97.6776 94.0961 99.5254C94.475 99.8571 94.8775 100.355 94.9012 100.805C95.0669 103.648 95.0433 106.514 95.2564 109.357C95.3511 110.731 94.8301 111.371 93.6225 111.702C93.0305 111.868 92.4622 112.058 91.8228 112.247C90.6625 110.186 90.8993 108.078 90.9704 106.064C88.2946 106.727 85.5714 107.391 82.5641 108.125C82.8246 104.951 83.7481 102.439 85.3583 99.6913H77.0468L76.7626 99.1938C77.8045 97.417 78.8464 95.6402 79.7226 94.124C76.6679 93.3895 73.5185 92.6314 70.3454 91.8733C70.2744 91.6601 70.227 91.4232 70.156 91.21C71.932 89.4095 73.7079 87.609 75.5076 85.7848C72.3345 85.3347 68.8536 85.311 65.4911 83.7001C66.9119 82.1128 68.238 80.5966 69.6114 79.033C66.2962 78.109 62.9811 77.1614 59.3108 76.1427L59.3344 76.0953Z" fill="#015389"/>
<path id="Vector_6" d="M153.248 100.189C152.963 106.751 152.679 113.077 152.395 119.757C134.114 115.943 115.929 115.872 97.5295 119.757C97.1979 113.124 96.8901 106.704 96.5586 100.213C115.573 96.0905 134.422 96.0905 153.248 100.213V100.189ZM147.328 109.807L147.28 109.855V109.784C147.446 109.784 147.588 109.784 147.754 109.784C148.275 109.831 148.772 109.878 149.151 109.902C149.435 109.428 149.743 108.955 149.885 108.694C149.53 108.173 149.151 107.628 148.843 107.201C148.512 107.438 148.062 107.77 147.635 108.102C147.47 108.031 147.28 107.983 147.115 107.912C147.209 108.054 147.304 108.173 147.399 108.315C147.446 108.718 147.493 109.12 147.564 109.523C147.47 109.618 147.399 109.736 147.304 109.831L147.328 109.807ZM129.307 107.817C129.307 107.817 129.402 107.912 129.45 107.983C129.45 107.936 129.45 107.865 129.45 107.817L129.26 107.865C129.379 107.32 129.521 106.751 129.592 106.443C129.165 105.875 128.81 105.401 128.455 104.927C128.715 105.14 129 105.33 129.26 105.543C128.739 105.97 128.218 106.42 127.697 106.846C127.603 106.657 127.508 106.443 127.413 106.254C127.508 106.775 127.603 107.296 127.65 107.533C128.266 107.652 128.763 107.723 129.284 107.817H129.307ZM141.1 108.741C141.645 108.789 142.189 108.86 142.757 108.931C142.686 108.718 142.592 108.362 142.497 108.031C142.876 107.817 143.255 107.628 143.444 107.509C142.923 107.13 142.402 106.775 142 106.491C141.502 106.657 140.958 106.846 140.413 107.036C140.413 107.012 140.413 106.965 140.413 106.941C140.413 106.965 140.413 106.988 140.413 107.012C140.532 107.533 140.674 108.054 140.792 108.575C140.792 108.694 140.792 108.812 140.768 108.907C140.863 108.86 140.958 108.812 141.053 108.765L141.1 108.741ZM139.158 114.569C139.3 114.664 139.419 114.735 139.561 114.83C139.49 114.688 139.419 114.546 139.371 114.403C139.632 113.93 139.916 113.456 140.058 113.195C139.679 112.792 139.206 112.295 138.874 111.94C138.519 112.2 137.974 112.579 137.524 112.887C137.619 113.337 137.737 113.953 137.832 114.427C138.211 114.474 138.685 114.522 139.158 114.569ZM137.832 103.15H139.798C139.845 102.937 139.987 102.416 140.105 101.989C139.821 101.516 139.466 100.947 139.206 100.497C138.803 100.876 138.329 101.302 138.14 101.492C138.022 102.226 137.927 102.7 137.856 103.174C137.856 103.174 137.856 103.174 137.856 103.15H137.832ZM106.078 115.304C106.078 115.304 106.173 115.446 106.244 115.517C106.244 115.398 106.196 115.304 106.196 115.185C106.149 114.711 106.125 114.238 106.078 113.693C105.723 113.385 105.225 112.958 104.965 112.745C104.515 113.195 104.018 113.669 103.662 114.001C103.852 114.356 104.183 114.901 104.397 115.28C104.941 115.28 105.509 115.28 106.078 115.28V115.304ZM112.637 114.474C112.637 114.474 112.826 114.569 112.898 114.617C112.898 114.498 112.85 114.403 112.826 114.285C112.969 113.764 113.111 113.243 113.253 112.721L113.3 112.627V112.745C112.708 112.484 112.116 112.224 111.548 111.963C111.903 112.176 112.234 112.366 112.59 112.579C112.021 112.982 111.453 113.385 110.885 113.787C110.719 113.551 110.53 113.29 110.364 113.053C110.648 113.574 110.932 114.119 111.122 114.474C111.642 114.474 112.14 114.474 112.637 114.474ZM134.091 108.031C134.754 108.078 135.44 108.125 135.89 108.149C136.151 107.604 136.435 107.012 136.624 106.585C136.175 106.277 135.701 105.922 135.322 105.685C134.801 105.993 134.304 106.301 134.091 106.42C134.091 107.036 134.091 107.533 134.091 108.031ZM143.87 113.645V113.574V113.622C144.107 114.19 144.344 114.759 144.581 115.304C144.96 115.351 145.575 115.446 145.978 115.493C146.309 114.972 146.665 114.427 146.949 114.001C146.499 113.764 145.954 113.479 145.575 113.266C144.983 113.408 144.439 113.527 143.894 113.645H143.87ZM109.559 108.67C109.559 108.67 109.559 108.789 109.559 108.86C109.559 108.86 109.606 108.812 109.606 108.789C109.606 108.741 109.559 108.718 109.535 108.67C109.511 108.149 109.488 107.604 109.464 107.154C109.061 106.775 108.612 106.349 108.28 106.041C107.901 106.491 107.475 107.036 107.167 107.367C107.356 107.888 107.57 108.433 107.712 108.789C108.304 108.741 108.943 108.694 109.559 108.647V108.67ZM131.083 114.214C131.675 114.119 132.244 114.048 132.836 113.953C132.907 113.669 133.073 113.1 133.191 112.627C132.836 112.224 132.41 111.75 132.149 111.466C131.604 111.774 131.06 112.082 130.728 112.271C130.847 112.887 130.989 113.551 131.107 114.238C131.06 114.238 131.036 114.238 130.989 114.238C131.012 114.238 131.06 114.238 131.083 114.238V114.214ZM122.725 107.817C122.725 107.817 122.843 107.936 122.89 108.007C122.89 107.96 122.89 107.912 122.89 107.865C122.819 107.865 122.748 107.865 122.677 107.865C122.843 107.201 123.009 106.562 123.127 106.041C122.701 105.756 122.133 105.377 121.73 105.093C121.304 105.496 120.806 105.946 120.522 106.206C120.664 106.751 120.83 107.296 120.972 107.841C120.901 107.841 120.83 107.841 120.759 107.865C120.783 107.912 120.807 107.983 120.83 108.031C120.878 107.96 120.901 107.888 120.949 107.817C121.517 107.817 122.109 107.817 122.677 107.817H122.725ZM105.154 103.908C105.273 102.866 104.752 102.037 103.852 101.61C103.378 102.084 102.999 102.511 102.715 102.771C102.952 103.245 103.213 103.814 103.449 104.287C103.852 104.193 104.444 104.074 105.154 103.908ZM102.952 107.936C101.958 107.201 100.987 107.58 100.371 108.315C100.703 109.002 100.939 109.547 101.105 109.902C101.602 109.807 102.194 109.689 102.715 109.57C102.786 109.12 102.857 108.504 102.952 107.936ZM144.865 102.463C144.912 103.056 144.96 103.6 145.007 104.003C145.528 104.074 146.144 104.169 146.57 104.24C146.878 103.743 147.209 103.198 147.446 102.795C147.02 102.487 146.499 102.132 146.12 101.871C145.623 102.108 145.125 102.345 144.865 102.463ZM117.444 102.558C117.681 102.558 118.32 102.605 118.912 102.629C118.959 102.203 119.007 101.634 119.054 101.255C118.628 100.734 118.249 100.26 118.012 99.9758C117.586 100.355 117.065 100.805 116.592 101.208C116.757 101.468 117.041 101.918 117.42 102.558H117.444ZM112.424 101.279C112.14 101.35 111.785 101.421 111.429 101.492C111.24 101.089 111.051 100.71 110.979 100.592C110.482 101.042 110.009 101.445 109.63 101.8C109.843 102.155 110.103 102.629 110.387 103.103H111.856C112.045 102.511 112.234 101.918 112.424 101.255V101.279ZM119.812 112.295C119.386 112.058 118.841 111.75 118.296 111.442C118.51 111.608 118.723 111.774 118.936 111.94C118.533 112.366 118.131 112.792 117.728 113.195C117.61 112.982 117.491 112.745 117.349 112.532C117.491 113.077 117.633 113.645 117.704 113.977C118.273 113.953 118.888 113.93 119.315 113.906C119.457 113.385 119.623 112.84 119.765 112.295H119.812ZM125.637 102.226C125.945 101.681 126.229 101.184 126.442 100.852C125.921 100.544 125.424 100.26 125.045 100.023C124.548 100.307 124.051 100.592 123.695 100.781C123.909 101.302 124.145 101.847 124.335 102.321C124.737 102.297 125.211 102.25 125.661 102.226H125.637ZM133.38 101.066C133.001 100.852 132.457 100.544 132.031 100.284C131.557 100.568 131.083 100.852 130.776 101.042C130.918 101.516 131.083 102.037 131.226 102.44C131.77 102.534 132.386 102.653 132.741 102.724C132.954 102.155 133.191 101.587 133.404 101.066H133.38ZM116 107.936C116.047 107.486 116.118 106.965 116.165 106.585C115.739 106.23 115.36 105.898 115.1 105.685C114.555 106.017 114.058 106.325 113.679 106.562C113.892 106.917 114.176 107.438 114.46 107.936H116.023H116ZM123.909 112.2C124.074 112.674 124.287 113.195 124.453 113.622C124.927 113.669 125.519 113.74 125.992 113.787C126.087 113.361 126.229 112.745 126.348 112.224C125.992 111.987 125.542 111.679 125.187 111.442C124.666 111.75 124.216 112.034 123.932 112.2H123.909Z" fill="#025489"/>
<path id="Vector_7" d="M159.523 106.064C159.381 107.983 159.239 110.044 159.073 112.437C157.511 111.845 156.374 111.418 155.261 110.968C153.982 110.47 154.551 109.333 154.551 108.504C154.551 106.514 154.787 104.524 154.787 102.558C154.787 101.444 155.143 100.757 156.114 100.141C159.547 98.0328 162.412 95.3558 162.957 91.1152C163.217 89.0304 162.957 86.8745 162.886 84.7424C162.791 81.8047 162.483 78.8671 162.578 75.9294C162.649 74.0342 164.07 72.7075 165.514 71.523C170.084 67.7325 175.46 65.6477 181.048 63.9419C185.737 62.4968 190.473 61.1938 195.09 59.5592C197.6 58.6589 199.921 57.2138 202.336 56.0056C202.668 58.2088 202.312 60.5068 200.3 62.0704C198.524 63.4444 196.487 64.4394 194.593 65.5766C195.587 66.6901 196.724 67.993 198.003 69.4619C194.64 71.1913 191.254 71.7599 187.749 72.0205C188.791 73.2524 189.81 74.4606 191.159 76.0479C187.347 77.0903 183.937 78.0142 180.669 78.9145C182.019 80.3359 183.511 81.9232 185.003 83.5104C184.955 83.7 184.932 83.8658 184.884 84.0553C181.522 84.6713 178.159 85.3109 175.034 85.8795C176.644 87.4905 178.443 89.291 180.432 91.281C176.999 92.9394 173.778 93.579 170.511 93.7922C171.553 95.5216 172.618 97.2984 173.755 99.2174C170.748 100.141 167.977 99.5727 165.206 99.8097C166.58 102.273 167.74 104.785 167.693 108.054C164.828 107.343 162.175 106.704 159.5 106.04L159.523 106.064Z" fill="#015389"/>
<path id="Vector_8" d="M129.9 36.9583C150.193 38.2376 168 45.487 183.534 58.967C181.948 59.4171 180.574 59.8672 179.177 60.1278C178.727 60.2226 178.088 59.9383 177.685 59.6303C172.452 55.4371 166.84 51.8361 160.731 49.0643C155.592 46.7189 150.407 44.5393 144.794 43.5917C140.698 42.9047 136.625 42.0044 132.505 41.6491C127.864 41.27 123.175 41.0331 118.534 41.3648C103.9 42.4309 90.4261 47.0742 78.2785 55.3423C76.6919 56.4321 75.4369 56.8111 73.7557 55.7924C73.14 55.4134 72.3586 55.2712 71.3877 54.9396C85.927 43.876 102.124 38.0718 120.073 36.9346C123.341 36.9346 126.609 36.9346 129.876 36.9346L129.9 36.9583Z" fill="#C51532"/>
<path id="Vector_9" d="M116.119 130.158C115.006 130.679 113.917 131.129 112.851 131.674C112.472 131.887 112.188 132.313 111.856 132.621C110.601 133.806 109.323 134.99 108.068 136.199C107.523 136.72 106.978 137.217 106.529 137.786C105.463 139.16 104.468 140.581 103.403 142.074C102.763 141.624 102.456 141.411 101.911 141.032C101.272 141.979 100.632 142.951 99.8035 144.206C97.8381 136.554 98.288 129.02 97.625 121.416C106.363 119.378 115.148 118.739 124.075 118.36V137.502C122.962 135.938 121.091 135.393 120.713 133.474C120.665 133.19 120.428 132.858 120.168 132.692C118.747 131.768 117.303 130.892 116.119 130.134V130.158Z" fill="#0179AE"/>
<path id="Vector_10" d="M100.371 145.083H124.051V157.804C119.409 154.843 113.939 154.014 108.801 152.261C105.131 151.005 102.289 148.849 100.371 145.083Z" fill="#5E9833"/>
<path id="Vector_11" d="M125.875 129.044C129.142 130.939 132.008 130.3 134.802 128.428C136.578 127.244 138.496 126.651 140.39 128.002C144.345 130.821 148.11 130.939 151.898 127.102C151.78 129.66 151.662 131.887 151.567 134.114C151.567 134.209 151.52 134.327 151.449 134.351C150.004 135.275 148.631 136.294 147.115 137.052C145.41 137.881 143.918 136.957 142.498 136.057C139.514 134.138 136.53 134.232 133.523 135.986C133.073 136.246 132.623 136.53 132.173 136.791C130.208 137.881 127.793 137.597 126.206 136.033C126.017 135.843 125.946 135.464 125.875 135.18C125.827 134.991 125.875 134.801 125.875 134.612V129.044Z" fill="#025489"/>
<path id="Vector_12" d="M125.874 139.421C126.94 139.8 127.91 140.463 128.858 140.439C130.326 140.392 131.794 139.965 133.215 139.539C133.972 139.302 134.612 138.734 135.322 138.354C137.122 137.359 138.85 137.407 140.721 138.402C142.189 139.184 143.823 139.847 145.457 140.202C147.541 140.652 149.317 139.634 151.045 138.212C151.306 141.458 150.335 144.182 148.749 146.694C148.133 147.689 146.073 148.186 144.936 147.712C144.06 147.357 143.136 147.025 142.379 146.504C139.348 144.467 136.435 144.798 133.404 146.551C132.22 147.238 130.799 147.854 129.473 147.878C128.36 147.878 127.224 147.049 126.134 146.504C125.969 146.433 125.898 146.03 125.874 145.77C125.874 143.685 125.874 141.6 125.874 139.421Z" fill="#0179AF"/>
<path id="Vector_13" d="M125.875 118.549C130.042 118.194 147.66 120.065 152.23 121.439C152.23 121.937 152.349 122.482 152.207 122.956C152.041 123.453 151.709 123.951 151.33 124.259C150.667 124.803 149.862 125.159 149.199 125.68C146.997 127.409 145.34 127.552 142.924 126.083C141.314 125.111 139.751 124.33 137.738 124.377C135.797 124.424 134.234 125.23 132.742 126.249C130.634 127.67 128.622 127.504 126.68 126.083C126.301 125.798 125.922 125.23 125.922 124.756C125.851 122.719 125.875 120.658 125.875 118.525V118.549Z" fill="#0179AF"/>
<path id="Vector_14" d="M160.659 32.4808C161.417 31.8174 161.914 31.4147 162.364 30.9646C164.567 28.785 166.745 26.5818 169.018 24.4496C169.35 24.1179 170.108 23.9758 170.581 24.0943C171.836 24.4733 173.044 25.0419 174.323 25.5394C174.086 25.9421 173.92 26.2738 173.731 26.5818C173.186 26.3449 172.665 26.1553 172.026 25.8947C170.297 30.3012 168.592 34.6603 166.887 39.0668C167.337 39.659 168.995 39.2089 168.426 40.962C166.106 40.0855 163.785 39.2089 161.488 38.3561C161.615 37.519 162.372 37.3689 163.761 37.9059C164.851 35.0867 165.94 32.2675 167.029 29.4483C166.911 29.3536 166.769 29.2825 166.65 29.1878C163.88 31.8648 161.133 34.5182 158.149 37.4084C157.699 33.0256 157.273 29.0693 156.871 25.113C156.776 25.113 156.681 25.113 156.587 25.113C155.497 27.9558 154.384 30.7987 153.295 33.6179C154.305 34.376 154.755 35.0551 154.645 35.6553C152.916 35.0157 151.188 34.3523 149.459 33.7127C149.506 32.9388 150.225 32.7493 151.614 33.1441C153.295 28.8087 155 24.4496 156.705 20.0195C156.042 19.7352 155.497 19.4983 154.811 19.1903C154.953 18.8586 155.095 18.5269 155.26 18.1479C156.468 18.6217 157.628 19.0244 158.765 19.5456C159.073 19.6878 159.404 20.1142 159.428 20.4459C159.854 24.3312 160.233 28.2164 160.659 32.5281V32.4808Z" fill="#05568B"/>
<path id="Vector_15" d="M46.0497 186.778C42.2136 187.536 38.3775 188.294 34.2573 189.124C36.199 185.309 38.0224 181.756 39.822 178.226C39.751 178.131 39.6799 178.036 39.6089 177.965C37.0988 179.766 34.6125 181.59 32.0551 183.438C32.434 184.03 32.7655 184.528 33.1444 185.12C32.8839 185.357 32.5997 185.57 32.2682 185.854C31.2263 184.433 30.2318 183.106 29.3083 181.708C29.1188 181.424 29.3319 180.903 29.3556 180.477H29.8055C30.1607 180.95 30.4922 181.424 30.9422 182.064C34.7309 179.316 38.567 176.544 42.4268 173.725C42.0242 173.109 41.669 172.611 41.3375 172.09C41.8348 171.356 42.1426 171.356 42.8056 172.09C44.5106 173.938 44.9368 175.596 43.445 177.918C41.7637 180.5 40.6034 183.391 39.0643 186.423C41.006 186.068 42.6636 185.783 44.3211 185.428C46.1918 185.025 48.0151 184.504 49.8858 184.101C50.7857 183.912 51.5908 183.935 52.1591 184.954C52.7274 185.996 53.5325 186.897 54.2902 187.939C53.8877 188.176 53.5562 188.389 53.2483 188.579C52.8931 188.081 52.5379 187.584 52.1354 186.992C48.2993 189.787 44.5106 192.511 40.6981 195.283C41.077 195.876 41.4085 196.373 41.8111 196.965C41.5033 197.202 41.2191 197.415 40.8876 197.676C39.4194 195.639 37.975 193.672 36.5305 191.659C36.8384 191.422 37.0752 191.208 37.4067 190.948C37.8329 191.445 38.2118 191.919 38.7564 192.559C41.2665 190.687 43.7765 188.839 46.2865 186.968C46.3813 186.873 46.4996 186.778 46.5944 186.684C46.4286 186.684 46.2628 186.707 46.0971 186.731L46.0497 186.778Z" fill="#06568B"/>
<path id="Vector_16" d="M20.4292 156.36C20.5476 157.023 20.6424 157.568 20.7371 158.113C20.6424 158.207 20.5476 158.326 20.4529 158.421C20.1451 158.207 19.6241 158.042 19.5294 157.734C19.0085 156.004 18.5112 154.275 18.1323 152.498C18.0613 152.143 18.4638 151.669 18.6533 151.242C18.7954 151.29 18.9138 151.337 19.0558 151.408C19.2453 151.977 19.4347 152.545 19.6005 153.09C21.7079 152.569 23.7207 152.072 25.7335 151.574C25.1178 149.015 24.5258 146.504 23.8865 143.851C21.8027 144.372 19.7899 144.87 17.7298 145.367C17.8482 146.03 17.9429 146.528 18.0613 147.096C17.2088 147.547 16.8299 147.476 16.6405 146.409C16.309 144.491 15.7644 142.619 15.3145 140.676C16.5932 139.989 16.6168 141.126 16.9483 142.121C21.4948 141.008 26.0413 139.895 30.6115 138.781C30.5168 138.141 30.4457 137.597 30.3036 136.72C30.8246 136.909 31.4166 136.957 31.4876 137.17C32.0559 139.255 32.5058 141.363 33.0031 143.448C32.9084 143.567 32.79 143.661 32.6953 143.78C32.3638 143.519 31.8428 143.33 31.7718 143.022C31.5587 142.169 31.0377 142.121 30.3747 142.287C28.7645 142.666 27.1543 143.093 25.473 143.519C26.0887 146.101 26.657 148.613 27.2726 151.195C29.167 150.769 30.8956 150.389 32.6242 149.939C32.8374 149.892 33.0978 149.347 33.0505 149.087C32.9321 148.328 32.9084 147.736 33.974 147.76C34.4949 149.75 35.0632 151.764 35.5131 153.801C35.5842 154.109 35.1816 154.535 35.0159 154.914C34.8975 154.867 34.7554 154.82 34.637 154.749C34.4239 154.227 34.2344 153.706 33.974 153.067C29.4512 154.18 24.9284 155.293 20.4056 156.407L20.4292 156.36Z" fill="#05568B"/>
<path id="Vector_17" d="M208.492 186.091C210.742 186.21 212.897 186.352 215.075 186.376C215.572 186.376 216.046 185.926 216.543 185.736C216.922 185.594 217.325 185.547 217.727 185.452C217.798 185.594 217.846 185.736 217.917 185.902C217.183 186.897 216.496 187.892 215.715 188.84C214.957 189.763 213.939 189.906 212.778 189.763C210.623 189.503 208.445 189.361 206.266 189.171L206.077 189.621C207.569 190.711 209.061 191.848 210.6 192.891C210.766 192.985 211.263 192.535 211.618 192.417C211.997 192.275 212.399 192.204 212.802 192.085C212.873 192.227 212.944 192.369 212.991 192.535C211.618 194.407 210.245 196.255 208.824 198.174C208.492 197.913 208.208 197.7 207.9 197.463C208.255 196.942 208.587 196.468 208.942 195.947C205.177 193.151 201.436 190.356 197.623 187.537C197.244 187.987 196.889 188.413 196.463 188.934C196.179 188.745 195.895 188.555 195.492 188.271C197.292 185.878 199.02 183.58 200.773 181.259C202.194 179.363 204.609 179.458 206.077 180.121C208.184 181.093 208.919 182.798 208.445 185.144C208.398 185.404 208.469 185.689 208.492 186.068V186.091ZM204.846 188.697C206.219 187.608 206.598 186.068 205.911 184.836C205.367 183.865 204.064 183.012 202.928 182.751C201.412 182.396 200.702 183.817 199.92 185.049C201.602 186.305 203.235 187.513 204.846 188.697Z" fill="#05568B"/>
<path id="Vector_18" d="M111.761 233.97H113.608V220.159C113.111 219.874 112.542 219.566 111.998 219.258C112.069 219.021 112.14 218.761 112.235 218.524C115.763 218.808 119.362 218.761 122.819 219.448C126.561 220.206 128.858 224.944 128.029 228.284C126.774 233.354 124.169 235.439 118.936 235.392C116.757 235.392 114.579 235.226 112.4 235.06C112.069 235.036 111.761 234.586 111.453 234.349C111.572 234.207 111.69 234.089 111.808 233.947L111.761 233.97ZM117.136 220.324V233.899C121.375 234.326 124.43 231.743 124.453 227.645C124.501 222.575 122.133 220.064 117.136 220.348V220.324Z" fill="#03548A"/>
<path id="Vector_19" d="M54.3145 41.4595C53.7699 41.8386 53.3436 42.1229 52.8464 42.4782C52.6096 42.1702 52.3965 41.9096 52.1123 41.5543C54.4566 39.8249 56.6351 38.0481 59.0267 36.5555C62.0341 34.684 65.1598 34.7314 68.1908 36.6977C70.535 38.2139 72.2163 41.8149 71.5296 45.2026C71.0797 47.3822 70.0141 48.9458 68.3565 50.2251C67.2909 51.0306 66.2017 51.8123 65.1361 52.5941C63.7627 53.6128 63.2654 53.5418 62.2235 52.144C59.8082 48.8747 57.4402 45.6054 55.0249 42.3361C54.8355 42.0755 54.5987 41.8149 54.3145 41.4832V41.4595ZM65.2071 50.5094C67.6935 49.0642 69.2563 47.9271 68.5223 43.7338C68.025 40.9146 66.2017 38.8772 63.4785 38.0244C61.1816 37.3136 59.0031 37.7638 57.3455 39.8012C59.9739 43.4021 62.6024 46.9558 65.2071 50.5094Z" fill="#05568B"/>
<path id="Vector_20" d="M127.959 23.6207C130.161 25.7528 130.54 29.2117 133.95 30.4673C133.736 30.7042 133.547 31.1543 133.216 31.2491C130.753 31.9124 129.024 31.2254 127.651 29.0459C126.704 27.5533 125.78 26.0608 124.833 24.5683C124.62 24.2366 124.241 23.976 123.933 23.6918C123.815 23.7391 123.696 23.7865 123.578 23.8576C123.578 25.6818 123.507 27.5297 123.649 29.3538C123.649 29.6381 124.501 29.875 124.951 30.1356C125.164 30.2541 125.354 30.3962 125.567 30.5147C125.354 30.7042 125.164 31.0359 124.951 31.0359C122.82 31.0833 120.665 31.0359 118.534 31.0359C118.582 30.262 119.197 29.8276 120.381 29.7329V15.9212C119.766 15.4474 118.297 16.395 118.463 14.713C121.755 14.713 125.046 14.5945 128.314 14.7604C129.971 14.8551 131.155 16.2766 131.321 17.9112C131.511 19.8065 131.511 21.678 129.522 22.8152C129.119 23.0521 128.693 23.2416 127.982 23.6207H127.959ZM123.625 22.3414C125.259 22.5072 126.964 22.6257 127.509 20.9199C127.888 19.7354 127.84 18.1244 127.296 17.0347C126.609 15.6132 124.975 16.016 123.625 16.1581V22.3651V22.3414Z" fill="#025489"/>
<path id="Vector_21" d="M31.4403 158.278C36.3893 158.278 39.6097 161.5 39.6097 166.499C39.6097 171.356 35.7263 174.909 30.3747 174.862C26.7517 174.838 22.5367 171.379 22.6315 166.641C22.7262 161.879 26.4675 158.278 31.4639 158.278H31.4403ZM33.3583 161.382C29.3565 161.571 25.9703 163.467 24.5969 167.186C24.3601 167.849 24.5021 168.939 24.9047 169.531C26.2307 171.498 28.1725 171.948 30.4694 171.498C33.382 170.929 35.821 169.674 37.1944 166.973C38.5441 164.296 37.7154 162.732 35.6079 161.856C34.8028 161.524 33.8793 161.477 33.3583 161.382Z" fill="#04558A"/>
<path id="Vector_22" d="M227.909 84.3871C227.909 89.1253 223.979 93.0342 219.124 92.8921C214.341 92.7263 211.026 89.1253 210.931 84.6714C210.837 80.1228 215.123 75.8111 220.379 76.2138C224.713 76.5455 227.933 79.7201 227.933 84.3871H227.909ZM217.514 89.5043C221.374 89.7175 225.186 86.6851 225.968 84.1028C226.536 82.1365 225.707 80.3834 223.813 79.7911C219.48 78.4408 214.578 80.7862 213.015 85.0505C212.778 85.7138 212.826 86.6614 213.133 87.3011C214.01 89.0542 215.667 89.5991 217.538 89.5043H217.514Z" fill="#04558A"/>
<path id="Vector_23" d="M96.4405 220.538C95.6828 223.712 94.925 226.91 94.1672 230.203C94.8303 230.417 95.3512 230.582 95.9432 230.796C95.9906 231.625 95.8011 231.98 94.854 231.72C93.4095 231.317 91.9177 231.056 90.4496 230.725C90.3785 229.493 90.5443 229.422 92.3202 229.966C92.7938 228.119 93.2911 226.294 93.741 224.47C94.2146 222.575 94.5698 220.632 95.0671 218.761C95.7301 216.392 95.6117 216.084 92.8412 215.349C93.3858 214.97 93.741 214.496 94.0252 214.544C95.3512 214.757 96.701 215.065 97.9797 215.444C98.3112 215.539 98.5953 215.989 98.7374 216.368C100.063 219.756 101.342 223.167 102.668 226.555C102.834 226.981 103.142 227.337 103.592 228.024C104.373 224.731 105.107 221.722 105.818 218.737C105.723 218.642 105.676 218.571 105.604 218.524C105.036 218.287 104.042 218.524 104.207 217.481C104.207 217.339 105.32 217.245 105.865 217.339C107.167 217.576 108.446 217.932 109.843 218.263C109.654 218.69 109.535 218.998 109.393 219.306C107.499 218.927 107.546 218.927 107.12 220.727C106.173 224.778 105.226 228.806 104.207 232.833C104.089 233.283 103.497 233.97 103.237 233.923C102.716 233.804 102.005 233.402 101.816 232.928C100.277 229.279 98.8321 225.584 97.3403 221.912C97.1509 221.438 96.9378 220.988 96.7246 220.538C96.6063 220.538 96.5115 220.538 96.3931 220.561L96.4405 220.538Z" fill="#06568B"/>
<path id="Vector_24" d="M192.959 44.8949C190.78 47.2877 188.602 49.6568 186.399 52.0969C186.849 52.5707 187.275 53.0208 187.725 53.4947C187.489 53.7553 187.275 53.9922 186.991 54.3238C185.594 53.0445 184.221 51.8126 182.776 50.5096C183.084 50.178 183.321 49.9174 183.581 49.6568C184.102 50.1069 184.576 50.5096 185.097 50.9598C187.891 47.9037 190.709 44.8949 193.409 41.8388C194.332 40.7964 194.095 39.683 192.817 38.8775C192.817 38.7354 192.864 38.5932 192.888 38.4511C193.314 38.4511 193.858 38.2852 194.119 38.4748C195.137 39.2802 196.226 40.062 196.937 41.1044C197.316 41.6493 197.055 42.7154 196.937 43.5209C196.487 47.2403 195.99 50.9598 195.445 55.0819C197.884 52.4049 200.062 50.0121 202.123 47.7615C202.217 46.8139 200.039 46.5533 201.744 45.3924C203.117 46.6244 204.467 47.88 205.911 49.183C205.627 49.5146 205.39 49.7515 205.13 50.0595C204.585 49.6094 204.135 49.2066 203.591 48.7565C201.957 50.557 200.276 52.2391 198.76 54.0869C197.837 55.2241 196.724 55.84 195.327 56.148C194.285 56.3849 193.243 56.6692 191.988 57.0009C192.438 52.9024 192.864 48.9934 193.29 45.0608C193.172 45.0371 193.077 45.0134 192.959 44.966V44.8949Z" fill="#06568B"/>
<path id="Vector_25" d="M18.037 100.591C17.8002 101.279 17.6344 101.8 17.4213 102.392C17.0424 102.274 16.7583 102.179 16.332 102.037C16.9003 100.141 17.4213 98.2698 18.037 96.4219C18.1554 96.0429 18.5816 95.7823 18.8894 95.4506C18.9605 95.9007 19.0789 96.3509 19.1262 96.801C19.1262 96.9668 19.0552 97.1563 19.0078 97.4169C22.6308 98.5067 26.1827 99.6439 29.782 100.544C30.5161 100.734 31.6764 100.189 32.3158 99.6202C34.66 97.488 33.926 93.4843 30.9423 92.3234C28.8822 91.518 26.7037 90.9968 24.5962 90.3334C23.5543 90.0254 22.5361 89.7175 21.5415 89.4332C20.8785 89.9544 21.3758 91.7312 19.6472 90.9731C20.1444 89.3147 20.5944 87.7511 21.0443 86.1875C21.2811 85.3584 21.7073 85.2399 22.394 85.7848C22.2283 86.3771 22.0625 86.9693 21.8731 87.7038C24.7146 88.5566 27.5562 89.3858 30.3977 90.2387C33.9733 91.3284 35.3704 92.9394 35.2994 96.1139C35.252 99.7623 33.334 103.174 30.2083 103.577C29.1901 103.695 28.0534 103.671 27.0826 103.387C24.0989 102.558 21.1627 101.563 18.037 100.568V100.591Z" fill="#07578C"/>
<path id="Vector_26" d="M68.6406 30.9411C68.4748 30.6331 68.3327 30.3251 68.167 30.0171C68.3564 29.875 68.4985 29.7565 68.6643 29.6618C70.8901 28.5009 73.1634 27.3875 75.3656 26.1556C76.3601 25.6107 77.1889 24.7815 78.2308 23.976C78.8465 25.1605 79.4385 26.3214 80.1015 27.577C79.6279 27.8139 79.2727 27.9797 78.8465 28.193C78.5387 27.6718 78.3019 27.2453 77.9703 26.7004C76.5259 27.4585 75.1051 28.1693 73.5423 28.9747C74.4184 30.6805 75.2472 32.3151 76.147 34.0446C77.3073 33.4286 78.3966 32.8837 79.5095 32.2914C79.2727 31.7703 79.0833 31.3438 78.8465 30.7989C79.249 30.562 79.6279 30.3488 80.1015 30.0882C80.8829 31.6044 81.617 33.0259 82.3747 34.5184C81.9722 34.7553 81.617 34.9685 81.1671 35.2291C80.8593 34.7553 80.5988 34.3288 80.2436 33.784C79.178 34.3288 78.1124 34.8737 76.9048 35.466C77.8283 37.2665 78.7044 38.9722 79.6279 40.7964C81.1908 39.9909 82.6589 39.2328 84.2691 38.4273C83.985 37.8588 83.7245 37.3849 83.4403 36.8401C83.8429 36.6032 84.2218 36.3899 84.7664 36.082C85.311 37.1007 85.832 38.0957 86.4003 39.1617C82.872 40.9859 79.4148 42.7627 75.8865 44.5869C75.3656 44.0894 74.9394 43.663 75.8865 43.2365C76.6206 42.9286 76.739 42.5258 76.3601 41.7914C74.4894 38.2141 72.6424 34.6131 70.8191 30.9885C70.1798 29.7092 69.493 30.7042 68.6406 30.8937V30.9411Z" fill="#07578C"/>
<path id="Vector_27" d="M193.527 192.085C195.753 194.525 197.742 196.729 199.755 198.884C201.484 200.756 202.383 202.864 201.318 205.352C200.11 208.148 198.003 209.995 194.901 210.446C193.054 210.706 191.562 209.948 190.331 208.598C188.128 206.157 185.879 203.741 183.748 201.419C182.942 201.514 182.564 203.315 181.498 201.656C183.203 200.093 184.908 198.529 186.684 196.894C186.968 197.226 187.181 197.463 187.418 197.724C187.039 198.15 186.66 198.553 186.139 199.121C188.697 201.822 191.136 204.641 193.835 207.176C195.729 208.953 199.447 207.129 199.802 204.404C199.968 203.007 199.85 201.633 198.808 200.519C196.677 198.197 194.569 195.876 192.391 193.459C191.846 193.886 191.349 194.288 190.804 194.739C190.567 194.478 190.331 194.241 190.023 193.886C191.325 192.677 192.604 191.469 193.93 190.356C194.143 190.19 194.688 190.403 195.066 190.427C195.114 190.616 195.137 190.782 195.185 190.972C194.664 191.327 194.167 191.682 193.551 192.109L193.527 192.085Z" fill="#06568B"/>
<path id="Vector_28" d="M182.99 39.5642C183.321 39.0667 183.605 38.6877 183.937 38.1901C184.339 38.4271 184.742 38.664 185.192 38.9246C184.268 40.3697 183.392 41.7201 182.469 43.1652C181.995 42.8572 181.616 42.6203 181.237 42.3597C181.545 41.8622 181.782 41.4595 182.114 40.9146C181.072 40.2512 180.053 39.6116 178.917 38.8772C177.851 40.5592 176.809 42.1702 175.696 43.8996C177.188 44.8709 178.633 45.7712 180.077 46.6951C180.432 46.1739 180.74 45.7475 181.095 45.25C181.498 45.4869 181.9 45.7238 182.35 45.9844C181.711 46.9557 181.143 47.8796 180.48 48.8983C177.236 46.8373 174.062 44.8235 170.937 42.7625C170.7 42.6203 170.771 42.028 170.629 41.2936C171.552 41.8148 172.026 42.0754 172.618 42.4071C175.152 38.4507 177.662 34.5181 180.077 30.7513C180.006 29.851 177.97 29.9458 179.367 28.548C181.522 29.9221 183.653 31.3198 185.855 32.6465C186.66 33.144 187.323 34.1153 188.554 33.6415C188.767 33.5705 189.17 34.0206 189.549 34.2575C188.815 35.3946 188.128 36.4607 187.394 37.6216C186.991 37.3847 186.636 37.1951 186.186 36.9345C186.471 36.3897 186.707 35.9158 187.015 35.3473C185.665 34.4707 184.339 33.6178 182.871 32.6702C181.877 34.2338 180.882 35.7737 179.793 37.4557C180.835 38.1428 181.853 38.8061 182.966 39.5405L182.99 39.5642Z" fill="#07578C"/>
<path id="Vector_29" d="M164.449 217.553C164.851 217.339 165.183 217.197 165.704 216.937C166.319 218.5 166.935 220.016 167.598 221.651C167.03 221.841 166.603 221.983 166.177 222.101C166.011 221.675 165.822 221.225 165.585 220.632C164.425 221.082 163.288 221.509 162.01 221.983C162.72 223.831 163.407 225.607 164.188 227.55C165.822 226.934 167.361 226.318 169.019 225.702C168.853 225.11 168.711 224.612 168.569 224.139C169.729 222.907 170.155 223.736 170.937 226.673C167.48 228.047 164.022 229.422 160.541 230.748C160.257 230.843 159.807 230.464 159.073 230.156C159.997 229.73 160.518 229.493 161.204 229.185C159.523 224.873 157.818 220.538 156.09 216.084C155.687 216.226 155.332 216.392 155 216.439C154.669 216.463 154.337 216.368 154.006 216.297C154.195 215.989 154.314 215.515 154.574 215.373C155.948 214.757 157.368 214.212 158.789 213.644C159.973 213.17 161.228 212.791 162.365 212.198C163.075 211.819 163.643 211.18 164.472 210.493C165.041 211.89 165.538 213.122 166.059 214.402C165.633 214.591 165.254 214.757 164.804 214.947C164.52 214.402 164.259 213.904 163.975 213.359C162.436 213.975 160.944 214.567 159.334 215.183C160.044 216.96 160.731 218.642 161.465 220.466C162.649 220.016 163.762 219.566 164.946 219.092C164.78 218.548 164.662 218.121 164.496 217.529L164.449 217.553Z" fill="#07578C"/>
<path id="Vector_30" d="M65.5859 197.439C64.4493 198.671 63.5731 199.595 62.6496 200.59C62.2707 200.258 61.9629 199.998 61.6077 199.69C61.9629 199.24 62.2707 198.837 62.6733 198.292C61.513 197.202 60.3527 196.112 59.074 194.904C57.7953 196.302 56.5403 197.652 55.1905 199.097C56.114 199.95 56.9665 200.756 57.89 201.632C58.2926 201.301 58.6951 200.993 59.145 200.614C59.4529 200.851 59.7844 201.111 60.2343 201.443C59.1213 202.675 58.0321 203.859 56.8718 205.162C56.4929 204.854 56.1614 204.57 55.7588 204.238C56.1614 203.741 56.4692 203.338 56.8244 202.888C55.9246 202.059 55.0485 201.253 54.0776 200.329C52.7279 201.775 51.4255 203.196 50.0047 204.712C51.2834 205.897 52.4911 207.01 53.7934 208.242C54.2197 207.863 54.6222 207.484 55.1195 207.034C55.451 207.318 55.7825 207.602 56.2088 207.958C55.4036 208.834 54.6696 209.616 53.8408 210.493C50.8808 207.768 47.9919 205.091 45.0557 202.39C45.3398 202.083 45.5529 201.846 45.8134 201.538C46.287 201.94 46.7132 202.296 47.2579 202.746C50.4309 199.287 53.6277 195.852 56.8244 192.369C56.3745 191.896 55.972 191.493 55.5931 191.09C55.972 190.237 56.3745 190.237 57.0139 190.829C58.6951 192.44 60.4237 194.028 62.176 195.591C62.8627 196.207 63.3363 197.131 64.544 196.894C64.8281 196.847 65.207 197.25 65.5859 197.463V197.439Z" fill="#06568B"/>
<path id="Vector_31" d="M84.6723 23.0992C84.5539 22.8149 84.4592 22.507 84.2461 21.9384C87.3481 21.1092 90.3318 20.1142 93.3864 19.5219C97.1515 18.8112 99.3774 23.502 97.4356 26.5344C96.7252 27.6478 95.3755 28.4059 94.1915 29.1167C93.4338 29.5668 92.7234 29.3062 92.7234 28.2164C95.0203 27.2214 95.5176 25.9184 94.5704 23.5494C93.6943 21.3698 92.4392 20.9197 89.7398 21.9384C91.1842 26.2738 92.6287 30.6329 94.0731 34.9446C94.9493 34.9209 95.8491 34.068 96.4411 35.4895C94.1442 36.2713 91.9183 37.0294 89.5977 37.8112C89.4319 37.4558 89.2898 37.1478 89.1004 36.7451C89.7161 36.5082 90.237 36.2949 90.8764 36.058C89.4793 31.8648 88.1532 27.6715 86.6851 23.5257C86.543 23.1229 85.5485 23.0282 84.9565 22.7913L84.6487 23.0755L84.6723 23.0992Z" fill="#06568B"/>
<path id="Vector_32" d="M103.592 31.9124C104.326 32.1256 104.918 32.2915 105.51 32.4573L105.462 33.0022C103.758 33.3102 102.029 33.6182 100.277 33.9498C99.9688 33.168 99.8978 32.7179 100.869 32.5995C101.2 32.5758 101.697 32.1019 101.768 31.7466C102.716 27.577 103.592 23.3838 104.492 19.2142C104.657 18.385 104.752 17.5322 105.036 16.7504C105.226 16.2766 105.699 15.7317 106.149 15.5895C106.481 15.4948 107.144 15.9686 107.381 16.3476C109.914 20.4461 112.353 24.592 114.887 28.6905C115.242 29.2591 115.929 29.6144 116.426 30.0882C116.568 30.2304 116.805 30.491 116.758 30.6094C116.687 30.8226 116.45 31.0832 116.237 31.1306C114.626 31.4623 113.04 31.8177 111.406 32.0309C111.146 32.0783 110.79 31.5334 110.269 31.1069C111.146 30.8463 111.595 30.7042 112.045 30.5621C110.554 26.9374 110.056 26.7478 105.51 27.7902C104.113 28.1219 103.426 29.5907 103.544 31.8887L103.592 31.9124ZM104.634 26.3214C105.96 26.1319 107.073 26.0134 108.162 25.7765C108.446 25.7055 108.872 25.0658 108.801 24.9237C107.996 23.4312 107.12 22.0097 106.244 20.5646C106.102 20.5646 105.983 20.612 105.841 20.6356C105.439 22.4835 105.06 24.3314 104.61 26.3214H104.634Z" fill="#06568B"/>
<path id="Vector_33" d="M86.3526 229.279C84.3162 228.355 82.5165 227.526 80.7169 226.721C80.8826 224.92 81.9245 226.223 82.4692 226.128C82.6112 225.039 82.8007 223.973 82.848 222.907C82.848 222.551 82.5402 222.054 82.2087 221.864C81.6167 221.509 80.9063 221.343 80.2433 221.059C79.2961 220.656 78.1832 219.685 77.4964 219.922C76.3835 220.301 75.5547 221.509 74.6549 222.314C74.797 223.167 76.7861 222.859 75.7205 224.281C72.2396 223.333 70.9372 222.433 71.6713 221.746C72.429 221.438 73.3288 221.296 73.8971 220.774C77.4728 217.481 80.9537 214.094 84.5056 210.777C84.8371 210.469 85.6185 210.208 85.9027 210.374C86.2816 210.611 86.6368 211.298 86.6131 211.772C86.471 215.657 86.2342 219.519 86.0211 223.404C85.9737 224.399 85.7606 225.37 85.808 226.365C85.8317 226.934 86.2579 227.479 86.4237 228.047C86.5184 228.379 86.4237 228.758 86.3763 229.303L86.3526 229.279ZM78.7515 218.429C80.1959 219.092 81.4746 219.661 82.9901 220.348V214.402C81.5693 215.752 80.2433 217.008 78.7515 218.429Z" fill="#04558A"/>
<path id="Vector_34" d="M184.765 214.212C185.049 214.046 185.405 213.833 185.736 213.62C185.878 213.691 185.997 213.715 186.044 213.786C187.915 216.652 187.867 216.913 185.144 219.116C181.711 221.888 177.59 222.457 174.441 220.561C171.576 218.832 169.516 215.018 170.06 212.056C170.747 208.361 173.02 205.826 176.809 204.523C177.519 204.286 178.372 204.428 178.159 203.244C178.135 203.101 178.727 202.841 179.153 202.533C179.958 203.836 180.716 205.068 181.569 206.418C181.142 206.679 180.763 206.916 180.385 207.129C179.248 205.755 177.969 205.47 176.383 206.252C173.66 207.603 172.476 210.73 173.565 213.62C174.583 216.297 176.335 218.24 179.13 219.164C181.166 219.827 184.694 218.358 185.31 216.321C185.476 215.776 185.002 215.041 184.789 214.212H184.765Z" fill="#05568B"/>
<path id="Vector_35" d="M40.3203 83.6054C39.2547 83.0131 37.976 82.3024 36.6026 81.5206C36.8631 81.0705 37.0762 80.6677 37.2656 80.2887C39.3968 81.2363 40.8886 80.6914 41.599 78.5356C41.8358 77.8011 41.7174 76.6403 41.2675 76.0954C40.8649 75.5979 39.6572 75.3847 38.9942 75.5979C37.384 76.1428 35.9159 77.0904 34.3293 77.6827C33.2874 78.0854 31.9851 78.5829 31.0142 78.3223C27.6754 77.4221 26.1125 74.2712 28.22 70.8835C28.9067 69.7937 29.4987 68.6328 30.1617 67.4483C31.2747 68.088 32.4823 68.7513 33.69 69.4383C33.5006 70.3623 33.1454 70.8361 32.2219 70.2912C31.0142 69.5568 30.4932 70.6465 29.9013 71.2625C29.1435 72.0443 28.8594 73.1578 29.5934 73.9869C30.067 74.5081 31.1563 74.9109 31.7956 74.7213C33.2401 74.2949 34.5661 73.4894 35.9159 72.7787C37.313 72.0443 38.7811 71.6179 40.2966 72.1154C43.8485 73.2525 44.3932 76.0717 43.1855 79.2226C42.5935 80.7862 41.3385 82.0892 40.3203 83.6054Z" fill="#05568B"/>
<path id="Vector_36" d="M150.312 220.372C149.814 220.443 149.459 220.514 149.128 220.561C149.009 220.467 148.891 220.396 148.891 220.348C148.962 218.666 147.588 218.595 146.57 218.571C145.434 218.571 144.392 219.187 143.989 220.396C143.705 221.248 144.984 222.575 146.475 223.073C147.683 223.475 148.914 223.902 150.075 224.399C152.537 225.465 153.532 227.455 153.106 230.369C152.869 232.051 151.117 233.591 148.915 233.947C147.944 234.113 146.925 234.113 145.718 234.207C145.528 234.326 145.078 234.728 144.652 234.728C144.415 234.728 144.084 234.018 143.965 233.591C143.681 232.573 143.492 231.53 143.255 230.393C143.823 230.298 144.226 230.227 144.628 230.132C145.315 232.43 146.925 233.212 149.009 232.123C149.672 231.791 150.406 230.914 150.454 230.251C150.501 229.588 149.909 228.569 149.293 228.237C147.825 227.408 146.191 226.839 144.628 226.2C142.687 225.418 141.574 224.068 141.361 221.912C141.077 219.022 143.752 217.292 145.907 217.008C146.76 216.889 147.731 217.268 148.417 216.273C148.654 215.942 149.506 215.942 149.649 216.818C149.838 217.932 150.075 219.045 150.312 220.325V220.372Z" fill="#05568B"/>
<path id="Vector_37" d="M226.489 169.176C224.926 168.086 226.323 167.281 226.11 166.215C222.061 164.675 217.87 163.064 213.465 161.406C212.968 162.685 212.494 163.94 211.997 165.243C212.66 165.528 213.228 165.788 213.749 166.025C213.323 167.636 213.039 167.612 209.416 165.859C211.808 161.595 213.773 157.189 214.483 152.166C215.833 152.664 217.112 153.137 218.509 153.659C218.343 154.132 218.201 154.559 218.035 155.009C217.325 154.819 216.686 154.654 216.023 154.464C215.549 155.72 215.099 156.904 214.602 158.207C217.704 159.392 220.711 160.529 223.718 161.666C224.524 161.974 225.329 162.258 226.11 162.566C227.01 162.922 227.744 163.159 227.933 161.737C227.981 161.429 228.62 161.169 228.975 160.884C229.117 161.026 229.26 161.145 229.402 161.287C228.431 163.846 227.484 166.404 226.465 169.129L226.489 169.176Z" fill="#07578C"/>
<path id="Vector_38" d="M230.727 104.832C230.514 104.382 230.349 104.027 230.112 103.577C230.751 103.363 231.272 103.174 231.864 102.984C231.58 101.681 231.343 100.355 230.941 99.099C230.822 98.7673 230.088 98.3645 229.709 98.4119C228.478 98.6015 227.247 98.9805 226.015 99.2648C225.186 99.4543 225.186 100.07 225.328 100.686C225.542 101.515 225.873 102.297 226.181 103.174C226.655 103.103 227.152 103.008 227.767 102.913C227.815 103.363 227.862 103.766 227.933 104.287C226.418 104.69 224.95 105.069 223.339 105.495C223.197 105.045 223.079 104.619 222.913 104.121C223.458 103.932 223.908 103.79 224.452 103.6C224.216 102.629 224.05 101.634 223.718 100.686C223.624 100.402 223.008 100.047 222.724 100.094C221.019 100.473 219.338 100.994 217.68 101.444C217.609 101.539 217.538 101.61 217.49 101.705C217.325 102.226 217.183 102.724 217.041 103.245C216.78 102.818 216.401 102.392 216.283 101.942C215.809 100.26 215.407 98.5304 214.98 96.801C216.425 95.9955 216.212 97.3222 216.638 98.175C221.09 97.0616 225.589 95.9244 229.993 94.8109C230.656 94.1476 229.046 92.8209 230.893 92.6551C232.409 96.185 232.006 100.355 234.635 103.742C233.261 104.121 232.006 104.453 230.704 104.785L230.727 104.832Z" fill="#06568B"/>
<path id="Vector_39" d="M136.981 31.6754C137.407 29.946 138.567 31.0121 139.609 30.8463C140.39 26.4635 141.196 21.986 142.024 17.3663C140.509 17.1767 139.135 17.0109 137.691 16.8214C137.644 17.5084 137.62 18.0059 137.573 18.5982C137.075 18.5508 136.673 18.5271 136.104 18.4797C136.223 17.2241 136.318 16.087 136.483 14.9261C136.625 14.0022 137.667 14.0496 137.857 14.3575C138.615 15.7079 140.012 15.3762 141.054 15.6368C143.35 16.2528 145.718 16.5608 148.086 16.8214C149.034 16.9161 150.028 16.6082 151.188 16.4423C150.975 17.8164 150.833 18.9772 150.573 20.1144C150.502 20.4224 149.981 20.6119 149.649 20.8725C149.46 20.5408 149.176 20.2328 149.128 19.9012C149.081 19.5458 149.247 19.1668 149.365 18.6219C147.968 18.385 146.595 18.1717 145.245 17.9348C144.487 22.4598 143.729 26.8899 142.972 31.4148C143.753 31.5807 144.44 31.7465 145.197 31.9124C145.363 32.6705 145.15 33.0732 144.274 32.9074C142.356 32.5757 140.462 32.2677 138.543 31.936C138.07 31.865 137.62 31.7465 136.933 31.6281L136.981 31.6754Z" fill="#06568B"/>
<path id="Vector_40" d="M203.354 69.77C203.354 70.765 205.201 71.2862 203.709 72.5655C202.288 70.694 200.939 68.9408 199.305 66.785C200.205 66.8324 200.749 66.8561 201.578 66.9034C204.846 64.4159 208.398 61.6915 212.092 58.8723C211.239 57.7825 210.458 56.7401 209.582 55.6267C209.013 56.0294 208.54 56.3611 207.877 56.8112C207.593 56.4558 207.308 56.1005 206.93 55.6267C208.09 54.7501 209.226 53.8972 210.387 53.0207C212.66 57.4745 215.573 61.3361 219.314 64.6765C218.225 65.5294 217.135 66.3586 215.975 67.2351C215.667 66.8561 215.383 66.5481 215.028 66.1453C215.525 65.7189 215.975 65.3162 216.567 64.8187C215.809 63.7763 215.028 62.7339 214.128 61.5493C210.458 64.3448 206.858 67.093 203.33 69.7937L203.354 69.77Z" fill="#07578C"/>
<path id="Vector_41" d="M217.679 144.561C217.656 145.106 217.632 145.628 217.585 146.244C219.455 145.485 221.208 144.798 223.292 143.969C221.8 142.571 220.403 141.268 218.84 139.823C218.627 140.51 218.461 141.055 218.295 141.624C217.206 141.979 217.182 141.174 217.324 140.463C217.608 138.97 217.964 137.478 218.319 135.938C219.148 135.654 219.29 136.08 219.361 136.838C219.432 137.431 219.669 138.094 220.071 138.497C221.587 140.013 223.149 141.482 224.807 142.856C225.328 143.282 226.133 143.448 226.843 143.59C228.643 143.922 230.443 144.182 232.361 144.49C232.432 143.898 232.503 143.401 232.621 142.429C233.095 142.927 233.663 143.282 233.616 143.519C233.237 145.58 232.763 147.618 232.29 149.655C232.29 149.75 232.077 149.821 231.627 150.153C231.532 149.3 231.461 148.66 231.366 147.76C228.548 147.76 225.66 145.604 222.463 147.547C221.184 148.328 219.692 148.755 218.271 149.3C217.49 149.608 216.614 149.75 216.567 150.911C216.567 151.1 215.832 151.242 215.217 151.527C215.714 148.968 216.14 146.765 216.59 144.514H217.656L217.679 144.561Z" fill="#04558A"/>
<path id="Vector_42" d="M125.897 157.71V149.963C126.3 150.105 126.655 150.176 126.963 150.342C129.118 151.432 131.225 151.219 133.285 150.058C133.996 149.655 134.706 149.276 135.393 148.85C137.193 147.76 138.969 147.76 140.768 148.944C141.881 149.679 143.113 150.247 144.415 150.958C143.42 151.385 142.378 151.906 141.289 152.261C137.808 153.375 134.304 154.37 130.846 155.554C129.165 156.123 127.602 156.999 125.921 157.734L125.897 157.71Z" fill="#03548A"/>
<path id="Vector_43" d="M64.1177 215.61C65.3491 216.439 66.4383 217.316 67.6697 217.908C68.0959 218.121 68.8537 217.671 69.4693 217.505C69.4693 217.363 69.4693 217.197 69.4456 217.055C69.8245 217.292 70.2034 217.529 70.677 217.813C70.014 218.784 69.3983 219.685 68.7353 220.68C65.5859 218.571 62.5075 216.51 59.4765 214.402C59.2397 214.236 59.2871 213.644 59.1924 213.264C59.3108 213.217 59.4292 213.17 59.5713 213.122C60.0448 213.407 60.5184 213.691 61.1578 214.046C63.7625 210.185 66.3436 206.323 68.9957 202.39C68.5221 202.011 68.0959 201.656 67.6697 201.324C67.646 201.182 67.5986 201.04 67.575 200.898C67.9775 200.827 68.5221 200.566 68.7826 200.732C70.5112 201.798 72.1925 202.983 73.8737 204.12C73.558 204.831 72.8713 204.87 71.8136 204.238C69.3036 207.958 66.7935 211.701 64.1414 215.634L64.1177 215.61Z" fill="#07578C"/>
<path id="Vector_44" d="M207.142 173.488C206.811 174.033 206.526 174.507 206.195 175.052C205.863 174.886 205.579 174.744 205.177 174.53C206.313 172.446 207.403 170.408 208.516 168.347C208.871 168.513 209.155 168.655 209.534 168.845C209.273 169.389 209.037 169.911 208.729 170.527C212.825 172.754 216.946 174.98 221.113 177.255C221.445 176.71 221.729 176.236 222.084 175.691C222.439 175.881 222.723 176.07 223.079 176.26C221.942 178.345 220.876 180.335 219.74 182.396C219.385 182.23 219.1 182.111 218.721 181.946C218.982 181.353 219.219 180.808 219.503 180.192C215.359 177.942 211.239 175.715 207.118 173.488H207.142Z" fill="#06568B"/>
<path id="Vector_45" d="M38.1893 88.8174C38.2603 90.1441 37.6447 90.6179 36.5554 90.6179C35.4661 90.6179 34.9452 89.9072 34.7557 88.9596C34.6137 88.1541 35.7029 87.1828 36.6264 87.2065C37.621 87.2065 38.1893 87.8698 38.1893 88.8411V88.8174Z" fill="#07578C"/>
<path id="Vector_46" d="M46.1446 69.6753C47.3049 69.5569 47.6601 70.1728 47.6601 71.2863C47.6601 72.4235 47.1155 72.8499 46.1209 72.8499C45.0317 72.8499 44.4634 72.2339 44.487 71.1679C44.487 70.1492 45.008 69.5806 46.1446 69.699V69.6753Z" fill="#05568B"/>
<path id="Vector_47" d="M118.179 77.5879C120.049 77.4694 121.873 77.351 123.672 77.2325C123.672 77.3747 123.672 77.5168 123.696 77.6827C121.92 78.0617 120.239 79.7674 118.179 77.6116V77.5879Z" fill="#07578C"/>
<path id="Vector_48" d="M213.039 130.774C213.039 127.883 213.039 124.993 213.039 122.103C213.134 122.885 213.323 123.643 213.3 124.425C213.252 126.533 213.134 128.665 213.039 130.774Z" fill="#DF897F"/>
<path id="Vector_49" d="M65.8467 109.405L66.1782 109.286C66.1782 109.286 66.0598 109.476 66.0124 109.57C65.9651 109.523 65.894 109.452 65.8467 109.405Z" fill="#025489"/>
<path id="Vector_50" d="M194.9 148.494C194.9 148.494 195.066 148.376 195.161 148.328C195.161 148.447 195.137 148.565 195.113 148.684C195.042 148.636 194.971 148.565 194.9 148.494Z" fill="#025489"/>
<path id="Vector_51" d="M167.597 124.59C167.597 124.59 167.55 124.377 167.526 124.259C167.597 124.306 167.668 124.377 167.739 124.424C167.692 124.472 167.645 124.519 167.597 124.567V124.59Z" fill="#025489"/>
<path id="Vector_52" d="M82.3037 124.424C82.3037 124.424 82.4458 124.306 82.5168 124.259C82.5168 124.377 82.4695 124.472 82.4695 124.59C82.4221 124.543 82.3511 124.496 82.3037 124.424Z" fill="#025489"/>
<path id="Vector_53" d="M197.671 121.961C197.671 121.961 197.884 121.913 198.002 121.89L197.86 122.198C197.86 122.198 197.742 122.055 197.671 121.961Z" fill="#EDF1F7"/>
<path id="Vector_54" d="M197.505 127.883C197.505 127.883 197.576 127.765 197.623 127.694C197.671 127.741 197.694 127.789 197.742 127.836C197.694 127.883 197.623 127.907 197.576 127.954L197.529 127.883H197.505Z" fill="#EDF1F7"/>
<path id="Vector_55" d="M199.66 138.876C199.66 138.876 199.897 138.829 200.015 138.805C199.944 138.9 199.897 138.994 199.826 139.089C199.755 139.018 199.708 138.971 199.66 138.876Z" fill="#FEFEFE"/>
<path id="Vector_56" d="M196.794 137.715C196.794 137.715 197.007 137.715 197.125 137.715C197.078 137.786 197.007 137.857 196.96 137.952C196.889 137.881 196.841 137.81 196.794 137.739V137.715Z" fill="#FEFEFE"/>
<path id="Vector_57" d="M69.4223 142.998C69.1855 145.699 68.925 148.518 68.6645 151.242C67.4332 149.537 67.8357 145.249 69.4223 142.998Z" fill="#07578C"/>
<path id="Vector_58" d="M60.2346 132.479C60.2346 132.479 60.3057 132.314 60.3293 132.243C60.353 132.29 60.4004 132.337 60.4241 132.408C60.353 132.408 60.282 132.456 60.2109 132.479H60.2346Z" fill="#07578C"/>
<path id="Vector_59" d="M55.3096 124.116C55.3096 124.116 55.499 123.998 55.57 123.951C55.57 124.069 55.5464 124.187 55.5227 124.306C55.4516 124.235 55.3806 124.187 55.3096 124.116Z" fill="#025489"/>
</g>
</svg>
