<svg width="32" height="32" viewBox="0 0 32 32" fill="none" xmlns="http://www.w3.org/2000/svg">
<g clip-path="url(#clip0_380_3257)">
<path d="M25.6401 20.347L22.2534 19.9603C21.4401 19.867 20.6401 20.147 20.0667 20.7203L17.6134 23.1737C13.8401 21.2537 10.7467 18.1737 8.82672 14.387L11.2934 11.9203C11.8667 11.347 12.1467 10.547 12.0534 9.73367L11.6667 6.37367C11.5067 5.02701 10.3734 4.01367 9.01339 4.01367H6.70672C5.20005 4.01367 3.94672 5.26701 4.04005 6.77367C4.74672 18.1603 13.8534 27.2537 25.2267 27.9603C26.7334 28.0537 27.9867 26.8003 27.9867 25.2937V22.987C28.0001 21.6403 26.9867 20.507 25.6401 20.347Z" fill="black"/>
</g>
<defs>
<clipPath id="clip0_380_3257">
<rect width="32" height="32" fill="white"/>
</clipPath>
</defs>
</svg>
