<svg width="27" height="12" viewBox="0 0 27 12" fill="none" xmlns="http://www.w3.org/2000/svg">
<g filter="url(#filter0_d_17_44)">
<path d="M4.71444 1.947C4.71444 1.583 4.8271 1.27967 5.05244 1.037C5.27777 0.794333 5.58544 0.673 5.97544 0.673C6.36544 0.673 6.6731 0.794333 6.89844 1.037C7.12377 1.27967 7.23644 1.583 7.23644 1.947C7.23644 2.311 7.12377 2.61433 6.89844 2.857C6.6731 3.09967 6.36544 3.221 5.97544 3.221C5.58544 3.221 5.27777 3.09967 5.05244 2.857C4.8271 2.61433 4.71444 2.311 4.71444 1.947ZM12.2372 1.947C12.2372 1.583 12.3498 1.27967 12.5752 1.037C12.8005 0.794333 13.1082 0.673 13.4982 0.673C13.8882 0.673 14.1958 0.794333 14.4212 1.037C14.6465 1.27967 14.7592 1.583 14.7592 1.947C14.7592 2.311 14.6465 2.61433 14.4212 2.857C14.1958 3.09967 13.8882 3.221 13.4982 3.221C13.1082 3.221 12.8005 3.09967 12.5752 2.857C12.3498 2.61433 12.2372 2.311 12.2372 1.947ZM19.7599 1.947C19.7599 1.583 19.8726 1.27967 20.0979 1.037C20.3232 0.794333 20.6309 0.673 21.0209 0.673C21.4109 0.673 21.7186 0.794333 21.9439 1.037C22.1692 1.27967 22.2819 1.583 22.2819 1.947C22.2819 2.311 22.1692 2.61433 21.9439 2.857C21.7186 3.09967 21.4109 3.221 21.0209 3.221C20.6309 3.221 20.3232 3.09967 20.0979 2.857C19.8726 2.61433 19.7599 2.311 19.7599 1.947Z" fill="#FF5C00"/>
<path d="M5.05244 1.037L4.31964 0.356549L5.05244 1.037ZM6.89844 1.037L7.63123 0.356549L6.89844 1.037ZM6.89844 2.857L7.63123 3.53745L6.89844 2.857ZM5.05244 2.857L4.31964 3.53745L5.05244 2.857ZM5.71444 1.947C5.71444 1.80821 5.74931 1.75614 5.78523 1.71745L4.31964 0.356549C3.9049 0.803195 3.71444 1.35779 3.71444 1.947H5.71444ZM5.78523 1.71745C5.79627 1.70556 5.80453 1.7 5.81906 1.69427C5.83714 1.68714 5.88394 1.673 5.97544 1.673V-0.327C5.36121 -0.327 4.76795 -0.126244 4.31964 0.356549L5.78523 1.71745ZM5.97544 1.673C6.06694 1.673 6.11373 1.68714 6.13182 1.69427C6.14635 1.7 6.1546 1.70556 6.16564 1.71745L7.63123 0.356549C7.18292 -0.126244 6.58967 -0.327 5.97544 -0.327V1.673ZM6.16564 1.71745C6.20157 1.75614 6.23644 1.80821 6.23644 1.947H8.23644C8.23644 1.35779 8.04597 0.803195 7.63123 0.356549L6.16564 1.71745ZM6.23644 1.947C6.23644 2.08579 6.20157 2.13786 6.16564 2.17655L7.63123 3.53745C8.04597 3.09081 8.23644 2.53621 8.23644 1.947H6.23644ZM6.16564 2.17655C6.1546 2.18844 6.14635 2.194 6.13182 2.19973C6.11373 2.20686 6.06694 2.221 5.97544 2.221V4.221C6.58967 4.221 7.18292 4.02024 7.63123 3.53745L6.16564 2.17655ZM5.97544 2.221C5.88394 2.221 5.83714 2.20686 5.81906 2.19973C5.80453 2.194 5.79627 2.18844 5.78523 2.17655L4.31964 3.53745C4.76795 4.02024 5.36121 4.221 5.97544 4.221V2.221ZM5.78523 2.17655C5.74931 2.13786 5.71444 2.08579 5.71444 1.947H3.71444C3.71444 2.53621 3.9049 3.09081 4.31964 3.53745L5.78523 2.17655ZM12.5752 1.037L11.8424 0.356549L12.5752 1.037ZM14.4212 1.037L15.154 0.356549H15.154L14.4212 1.037ZM14.4212 2.857L15.154 3.53745H15.154L14.4212 2.857ZM12.5752 2.857L11.8424 3.53745L12.5752 2.857ZM13.2372 1.947C13.2372 1.80821 13.272 1.75614 13.308 1.71745L11.8424 0.356549C11.4276 0.803195 11.2372 1.35779 11.2372 1.947H13.2372ZM13.308 1.71745C13.319 1.70556 13.3273 1.7 13.3418 1.69427C13.3599 1.68714 13.4067 1.673 13.4982 1.673V-0.327C12.8839 -0.327 12.2907 -0.126244 11.8424 0.356549L13.308 1.71745ZM13.4982 1.673C13.5897 1.673 13.6365 1.68714 13.6546 1.69427C13.6691 1.7 13.6773 1.70556 13.6884 1.71745L15.154 0.356549C14.7057 -0.126244 14.1124 -0.327 13.4982 -0.327V1.673ZM13.6884 1.71745C13.7243 1.75614 13.7592 1.80821 13.7592 1.947H15.7592C15.7592 1.35779 15.5687 0.803195 15.154 0.356549L13.6884 1.71745ZM13.7592 1.947C13.7592 2.08579 13.7243 2.13786 13.6884 2.17655L15.154 3.53745C15.5687 3.09081 15.7592 2.53621 15.7592 1.947H13.7592ZM13.6884 2.17655C13.6773 2.18844 13.6691 2.194 13.6546 2.19973C13.6365 2.20686 13.5897 2.221 13.4982 2.221V4.221C14.1124 4.221 14.7057 4.02024 15.154 3.53745L13.6884 2.17655ZM13.4982 2.221C13.4067 2.221 13.3599 2.20686 13.3418 2.19973C13.3273 2.194 13.319 2.18844 13.308 2.17655L11.8424 3.53745C12.2907 4.02024 12.8839 4.221 13.4982 4.221V2.221ZM13.308 2.17655C13.272 2.13786 13.2372 2.08579 13.2372 1.947H11.2372C11.2372 2.53621 11.4276 3.09081 11.8424 3.53745L13.308 2.17655ZM20.0979 1.037L19.3651 0.356549L20.0979 1.037ZM21.9439 1.037L22.6767 0.356549L21.9439 1.037ZM21.9439 2.857L22.6767 3.53745L21.9439 2.857ZM20.0979 2.857L19.3651 3.53745L20.0979 2.857ZM20.7599 1.947C20.7599 1.80821 20.7948 1.75614 20.8307 1.71745L19.3651 0.356549C18.9504 0.803195 18.7599 1.35779 18.7599 1.947H20.7599ZM20.8307 1.71745C20.8417 1.70556 20.85 1.7 20.8645 1.69427C20.8826 1.68714 20.9294 1.673 21.0209 1.673V-0.327C20.4067 -0.327 19.8134 -0.126244 19.3651 0.356549L20.8307 1.71745ZM21.0209 1.673C21.1124 1.673 21.1592 1.68714 21.1773 1.69427C21.1918 1.7 21.2001 1.70556 21.2111 1.71745L22.6767 0.356549C22.2284 -0.126244 21.6351 -0.327 21.0209 -0.327V1.673ZM21.2111 1.71745C21.247 1.75614 21.2819 1.80821 21.2819 1.947H23.2819C23.2819 1.35779 23.0914 0.803195 22.6767 0.356549L21.2111 1.71745ZM21.2819 1.947C21.2819 2.08579 21.247 2.13786 21.2111 2.17655L22.6767 3.53745C23.0914 3.09081 23.2819 2.53621 23.2819 1.947H21.2819ZM21.2111 2.17655C21.2001 2.18844 21.1918 2.194 21.1773 2.19973C21.1592 2.20686 21.1124 2.221 21.0209 2.221V4.221C21.6351 4.221 22.2284 4.02024 22.6767 3.53745L21.2111 2.17655ZM21.0209 2.221C20.9294 2.221 20.8826 2.20686 20.8645 2.19973C20.85 2.194 20.8417 2.18844 20.8307 2.17655L19.3651 3.53745C19.8134 4.02024 20.4067 4.221 21.0209 4.221V2.221ZM20.8307 2.17655C20.7948 2.13786 20.7599 2.08579 20.7599 1.947H18.7599C18.7599 2.53621 18.9504 3.09081 19.3651 3.53745L20.8307 2.17655Z" fill="#FF5C00"/>
</g>
<defs>
<filter id="filter0_d_17_44" x="0.714355" y="0.672997" width="25.5674" height="10.548" filterUnits="userSpaceOnUse" color-interpolation-filters="sRGB">
<feFlood flood-opacity="0" result="BackgroundImageFix"/>
<feColorMatrix in="SourceAlpha" type="matrix" values="0 0 0 0 0 0 0 0 0 0 0 0 0 0 0 0 0 0 127 0" result="hardAlpha"/>
<feOffset dy="4"/>
<feGaussianBlur stdDeviation="2"/>
<feComposite in2="hardAlpha" operator="out"/>
<feColorMatrix type="matrix" values="0 0 0 0 0 0 0 0 0 0 0 0 0 0 0 0 0 0 0.25 0"/>
<feBlend mode="normal" in2="BackgroundImageFix" result="effect1_dropShadow_17_44"/>
<feBlend mode="normal" in="SourceGraphic" in2="effect1_dropShadow_17_44" result="shape"/>
</filter>
</defs>
</svg>
