<svg width="19" height="19" viewBox="0 0 19 19" fill="none" xmlns="http://www.w3.org/2000/svg">
<path id="Vector" d="M13.6957 12.0131H12.8621L12.5667 11.7282C13.8329 10.2508 14.4871 8.23539 14.1284 6.0933C13.6324 3.1598 11.1843 0.817223 8.22972 0.45845C3.76616 -0.0902618 0.0095917 3.6663 0.558304 8.12987C0.917077 11.0845 3.25966 13.5326 6.19315 14.0285C8.33524 14.3873 10.3507 13.7331 11.828 12.4668L12.1129 12.7623V13.5959L16.5976 18.0805C17.0302 18.5132 17.7372 18.5132 18.1698 18.0805C18.6025 17.6479 18.6025 16.9409 18.1698 16.5083L13.6957 12.0131ZM7.36444 12.0131C4.73696 12.0131 2.61597 9.89208 2.61597 7.26459C2.61597 4.6371 4.73696 2.51612 7.36444 2.51612C9.99193 2.51612 12.1129 4.6371 12.1129 7.26459C12.1129 9.89208 9.99193 12.0131 7.36444 12.0131Z" fill="#EBEBEB"/>
</svg>
