<svg width="32" height="32" viewBox="0 0 32 32" fill="none" xmlns="http://www.w3.org/2000/svg">
<g clip-path="url(#clip0_380_3243)">
<path d="M15.987 2.66602C8.62699 2.66602 2.66699 8.63935 2.66699 15.9993C2.66699 23.3593 8.62699 29.3327 15.987 29.3327C23.3603 29.3327 29.3337 23.3593 29.3337 15.9993C29.3337 8.63935 23.3603 2.66602 15.987 2.66602ZM16.0003 26.666C10.107 26.666 5.33366 21.8927 5.33366 15.9993C5.33366 10.106 10.107 5.33268 16.0003 5.33268C21.8937 5.33268 26.667 10.106 26.667 15.9993C26.667 21.8927 21.8937 26.666 16.0003 26.666ZM15.707 9.33268H15.627C15.0937 9.33268 14.667 9.75935 14.667 10.2927V16.586C14.667 17.0527 14.907 17.4927 15.3203 17.7327L20.8537 21.0527C21.307 21.3193 21.8937 21.186 22.1603 20.7327C22.4403 20.2793 22.2937 19.6793 21.827 19.4127L16.667 16.346V10.2927C16.667 9.75935 16.2403 9.33268 15.707 9.33268Z" fill="black"/>
</g>
<defs>
<clipPath id="clip0_380_3243">
<rect width="32" height="32" fill="white"/>
</clipPath>
</defs>
</svg>
