<svg width="99" height="99" viewBox="0 0 99 99" fill="none" xmlns="http://www.w3.org/2000/svg">
<path id="Vector" d="M84.15 20.8421H69.3V15.6316C69.3 11.4858 67.7355 7.50987 64.9505 4.57838C62.1656 1.64689 58.3885 0 54.45 0H44.55C40.6115 0 36.8344 1.64689 34.0495 4.57838C31.2645 7.50987 29.7 11.4858 29.7 15.6316V20.8421H14.85C10.9115 20.8421 7.13438 22.489 4.34946 25.4205C1.56455 28.352 0 32.3279 0 36.4737V83.3684C0 87.5142 1.56455 91.4901 4.34946 94.4216C7.13438 97.3531 10.9115 99 14.85 99H84.15C88.0885 99 91.8656 97.3531 94.6505 94.4216C97.4354 91.4901 99 87.5142 99 83.3684V36.4737C99 32.3279 97.4354 28.352 94.6505 25.4205C91.8656 22.489 88.0885 20.8421 84.15 20.8421ZM39.6 15.6316C39.6 14.2497 40.1215 12.9243 41.0498 11.9472C41.9781 10.97 43.2372 10.4211 44.55 10.4211H54.45C55.7628 10.4211 57.0219 10.97 57.9502 11.9472C58.8785 12.9243 59.4 14.2497 59.4 15.6316V20.8421H39.6V15.6316ZM89.1 83.3684C89.1 84.7503 88.5785 86.0757 87.6502 87.0528C86.7219 88.03 85.4628 88.5789 84.15 88.5789H14.85C13.5372 88.5789 12.2781 88.03 11.3498 87.0528C10.4215 86.0757 9.9 84.7503 9.9 83.3684V54.7105C22.504 59.9739 35.9404 62.6789 49.5 62.6826C63.0591 62.6739 76.4947 59.9691 89.1 54.7105V83.3684ZM89.1 43.2995C76.6181 49.0716 63.1333 52.052 49.5 52.052C35.8667 52.052 22.3819 49.0716 9.9 43.2995V36.4737C9.9 35.0918 10.4215 33.7665 11.3498 32.7893C12.2781 31.8121 13.5372 31.2632 14.85 31.2632H84.15C85.4628 31.2632 86.7219 31.8121 87.6502 32.7893C88.5785 33.7665 89.1 35.0918 89.1 36.4737V43.2995Z" fill="black"/>
</svg>
