<svg width="107" height="107" viewBox="0 0 107 107" fill="none" xmlns="http://www.w3.org/2000/svg">
<path id="Vector" d="M103 43.6C102.817 37.1105 102.202 32.9723 100.122 29.443C97.1593 24.4187 91.8288 21.622 81.1728 16.0384L71.2649 10.8409C62.5658 6.28195 58.2162 4 53.5396 4C48.8631 4 44.5135 6.277 35.8144 10.8409L25.9064 16.0384C15.2505 21.622 9.91999 24.4187 6.95752 29.443C4 34.4623 4 40.7141 4 53.203V53.7821C4 66.2809 4 72.5327 6.95752 77.552C9.91999 82.5763 15.2505 85.3731 25.9064 90.9616L35.8144 96.1541C44.5135 100.718 48.8631 103 53.5396 103C58.2162 103 62.5658 100.723 71.2649 96.1591L81.1728 90.9616C91.8288 85.3731 97.1593 82.5812 100.122 77.557C102.202 74.0277 102.817 69.8894 103 63.4M98.1253 31.225L78.3094 41.125M78.3094 41.125L75.8325 42.3625L53.5396 53.5M78.3094 41.125V58.45M78.3094 41.125L31.2468 16.375M53.5396 53.5L8.95396 31.225M53.5396 53.5V100.525" stroke="black" stroke-width="8" stroke-linecap="round"/>
</svg>
