<svg width="99" height="99" viewBox="0 0 99 99" fill="none" xmlns="http://www.w3.org/2000/svg">
<path id="Vector" d="M68.7023 0L66.1985 2.741C60.5916 8.90539 55.9695 11.6616 52.1221 13.4648C48.2748 15.2642 45.042 15.8017 41.8664 18.2301C38.4809 20.8224 33.5611 25.7936 31.4886 34.6685C27.0458 35.6368 23.7939 37.3371 21.229 39.552C18.6947 41.7402 16.7863 44.2296 14.4351 46.9401C14.416 46.9706 14.4466 47.0278 14.4351 47.0583C11.0611 50.9315 8.11069 55.1021 2.3855 57.3056L0 58.2586V99H72.7595C76.9313 98.7751 79.8244 95.8892 81.584 93.0415C83.3397 90.1975 84.313 87.1173 84.8053 84.5859C86.0725 78.1356 88.3817 59.5662 88.3817 59.5662L88.5038 59.2117V58.8533C88.3817 56.2763 87.3206 54.088 85.9962 52.0599L90.2901 39.3156L97.0916 29.0683L99 26.3273L96.4924 24.0667L71.4466 2.38265L68.7023 0ZM68.9427 10.4837L88.8588 27.7607L83.6107 35.4996L83.2557 35.8617L83.1336 36.4564L79.6756 46.6999C77.8702 45.9565 76.0114 45.4342 73.9504 45.5105H73.7099L49.6183 45.6287H45.8015V60.4011C45.2672 64.5564 42.9542 66.1652 40.0763 67.3127C39.1221 67.6977 39.0038 67.488 38.1679 67.6672V45.5143C37.542 31.3823 42.5802 27.3147 46.5191 24.3068C47.6069 23.4719 50.7939 22.5075 55.3435 20.3764C59.145 18.5885 63.8702 15.3824 68.9427 10.4837ZM30.7748 43.246C30.7595 44.1114 30.4886 44.7214 30.5344 45.6287V76.1266H34.3511C34.3511 76.1266 38.4351 76.0808 42.8206 74.3386C47.2023 72.5964 52.4962 68.5173 53.4351 61.3542V53.2531L73.9504 53.135H74.0687C75.7442 53.0433 77.3878 53.6185 78.6396 54.7345C79.8915 55.8506 80.6496 57.4166 80.7481 59.0897C80.7328 59.1507 80.5573 60.565 80.5115 60.8776H64.8855V68.5021H79.5573C79.1527 71.449 78.7824 73.2979 78.3626 76.1266H64.8855V83.7511H77.1718C76.7207 85.5954 75.9965 87.3622 75.0229 88.9929C73.9809 90.6893 73.084 91.3298 72.2824 91.3755H7.63359V62.9019C13.8206 59.6234 17.6679 54.9077 20.1565 52.0637C22.7366 49.1131 24.5076 46.8791 26.2405 45.3923C27.374 44.424 29.1489 43.8712 30.7748 43.246Z" fill="black"/>
</svg>
